<?xml version="1.0" encoding="UTF-8" standalone="no"?>
<!-- Created with Inkscape (http://www.inkscape.org/) -->

<svg
   xmlns:dc="http://purl.org/dc/elements/1.1/"
   xmlns:cc="http://creativecommons.org/ns#"
   xmlns:rdf="http://www.w3.org/1999/02/22-rdf-syntax-ns#"
   xmlns:svg="http://www.w3.org/2000/svg"
   xmlns="http://www.w3.org/2000/svg"
   xmlns:sodipodi="http://sodipodi.sourceforge.net/DTD/sodipodi-0.dtd"
   xmlns:inkscape="http://www.inkscape.org/namespaces/inkscape"
   version="1.1"
   id="svg815"
   width="475.83862"
   height="311.12698"
   viewBox="0 0 475.83862 311.12698"
   sodipodi:docname="lolo.svg"
   inkscape:version="0.92.2 (5c3e80d, 2017-08-06)">
  <metadata
     id="metadata821">
    <rdf:RDF>
      <cc:Work
         rdf:about="">
        <dc:format>image/svg+xml</dc:format>
        <dc:type
           rdf:resource="http://purl.org/dc/dcmitype/StillImage" />
        <dc:title></dc:title>
      </cc:Work>
    </rdf:RDF>
  </metadata>
  <defs
     id="defs819" />
  <sodipodi:namedview
     pagecolor="#ffffff"
     bordercolor="#666666"
     borderopacity="1"
     objecttolerance="10"
     gridtolerance="10"
     guidetolerance="10"
     inkscape:pageopacity="0"
     inkscape:pageshadow="2"
     inkscape:window-width="3840"
     inkscape:window-height="2035"
     id="namedview817"
     showgrid="false"
     inkscape:zoom="2.16"
     inkscape:cx="-59.95918"
     inkscape:cy="106.54316"
     inkscape:window-x="-13"
     inkscape:window-y="-13"
     inkscape:window-maximized="1"
     inkscape:current-layer="g1503"
     fit-margin-top="0"
     fit-margin-left="0"
     fit-margin-right="0"
     fit-margin-bottom="0" />
  <g
     id="g1503"
     transform="translate(-0.78692757,-0.21663371)"
     style="display:inline">
    <path
       style="display:inline;fill:#eb6850;stroke-width:0.16"
       d="m 462.8879,311.13685 c -0.82544,-0.30728 -1.4792,-0.96031 -1.79856,-1.79656 -0.37821,-0.99032 -0.24879,-1.17882 0.80942,-1.17882 0.85381,0 0.8904,0.018 1.11147,0.54712 0.39149,0.93696 1.21247,1.15557 1.95168,0.51971 0.39044,-0.33582 0.44015,-0.49988 0.49704,-1.64 0.078,-1.5623 -0.0606,-1.84388 -0.69937,-1.42169 -0.29664,0.19605 -0.74296,0.30045 -1.28957,0.30163 -1.00926,0.002 -1.54675,-0.34219 -2.12408,-1.36094 -0.38981,-0.68784 -0.4,-0.78738 -0.4,-3.90583 0,-2.95139 0.0271,-3.25872 0.34912,-3.95573 0.2123,-0.4596 0.55714,-0.88256 0.88,-1.0794 0.65042,-0.39655 1.86443,-0.42949 2.56061,-0.0695 0.39216,0.2028 0.56518,0.2172 0.84033,0.0699 0.19058,-0.10198 0.70277,-0.16291 1.13823,-0.13537 l 0.79171,0.0501 v 6.4 c 0,6.39139 0,6.40103 -0.37536,7.16226 -0.67698,1.37473 -2.67336,2.07733 -4.24267,1.49312 z m 2.21803,-6.83655 c 0.29616,-0.2848 0.32,-0.51696 0.32,-3.11713 v -2.80941 l -0.44893,-0.38614 c -0.60075,-0.51676 -1.11406,-0.4914 -1.59382,0.0788 -0.33045,0.39272 -0.40746,0.69704 -0.49595,1.96 -0.11935,1.70317 0.082,3.85754 0.39579,4.23568 0.48768,0.58762 1.23531,0.6033 1.82291,0.0382 z m -21.32915,6.08911 c 0.0485,-0.84592 0.0571,-0.85923 0.64809,-0.99829 0.71464,-0.16816 1.32074,-0.83136 1.46564,-1.60368 0.0784,-0.41776 -0.23644,-1.9187 -1.26005,-6.0079 -0.7505,-2.99805 -1.36453,-5.5246 -1.36453,-5.61455 0,-0.0956 0.46027,-0.16352 1.10866,-0.16352 h 1.10865 l 0.17187,0.84 c 0.0945,0.462 0.40672,2.064 0.69376,3.56 0.38957,2.03037 0.58074,2.72 0.75404,2.72 0.1752,0 0.39888,-0.8632 0.91209,-3.52 0.37397,-1.936 0.68243,-3.538 0.68544,-3.56 0.0144,-0.10473 2.24549,-0.0245 2.24549,0.0807 0,0.0664 -0.72205,3.03357 -1.60456,6.59371 -1.06627,4.3015 -1.73538,6.69622 -1.99454,7.13845 -0.48189,0.82229 -1.23221,1.20078 -2.59773,1.31038 l -1.02146,0.082 z M 25.452732,307.41494 c -0.05874,-0.0587 -0.106806,-51.1711 -0.106806,-113.58302 0,-103.327859 0.02263,-113.484889 0.253086,-113.573319 48.045504,-0.0744 87.749908,0.16881 125.986918,-0.0971 l 55.6,0.08 v 113.599989 113.6 l -90.81319,0.0401 c -49.947264,0.0221 -90.861264,-0.008 -90.920008,-0.0667 z m 52.120104,-4.79059 c 0.23015,-0.0883 0.25309,-5.40696 0.25309,-58.672 0,-33.41496 0.06,-58.50958 0.13979,-58.42288 0.0769,0.0836 1.70621,3.14 3.6207,6.792 1.9145,3.652 3.55241,6.73 3.6398,6.84 0.12529,0.1577 3.68281,0.2 16.821454,0.2 h 16.66256 l 0.33829,1.41615 c 0.87246,3.65221 2.97207,6.21104 6.15264,7.49832 0.60546,0.24504 1.10171,0.52717 1.1028,0.62693 0.004,0.31772 -1.28205,3.29424 -1.96014,4.5386 -1.19383,2.19084 -2.22993,3.58242 -3.9427,5.29548 -2.37668,2.37705 -4.56089,3.59228 -7.56844,4.21088 -1.59511,0.32808 -5.0688,0.33147 -7.30622,0.007 -5.865154,-0.8502 -12.898664,-3.43656 -18.702894,-6.87744 -0.9913,-0.58767 -1.90574,-1.02882 -2.0321,-0.98034 -0.19579,0.0751 -0.21644,0.87526 -0.13978,5.41622 0.0495,2.93042 0.13592,6.76805 0.1921,8.52805 l 0.10214,3.2 1.68,0.10735 c 7.51133,0.47995 15.842814,4.05793 23.280004,9.99766 3.57063,2.85168 8.12138,7.61118 11.29679,11.81499 3.52017,4.66022 8.01935,12.18982 10.46871,17.51987 4.41887,9.61591 6.7932,18.94271 7.06696,27.76013 0.0602,1.93856 0.15836,3.08259 0.27096,3.15755 0.25124,0.16725 3.4914,0.14616 3.76092,-0.0245 0.18584,-0.11766 0.2074,-0.70057 0.12571,-3.39755 -0.37064,-12.23557 -4.62509,-25.52027 -12.26416,-38.29552 -4.35184,-7.27781 -7.68951,-11.722 -12.46183,-16.59328 -4.98015,-5.08342 -10.05492,-8.84205 -15.78406,-11.69043 -4.149304,-2.06294 -7.769264,-3.23677 -12.977404,-4.20811 -0.27582,-0.0514 -0.35588,-0.21674 -0.43861,-0.90555 -0.14813,-1.23328 -0.1263,-5.40263 0.0283,-5.40263 0.0728,0 1.09876,0.42283 2.28,0.93962 4.06706,1.77931 8.13973,3.07237 11.974664,3.80192 2.65779,0.50561 7.34491,0.69603 9.47793,0.38504 2.86403,-0.41755 6.11403,-1.78186 8.46529,-3.55359 1.61672,-1.21824 3.84101,-3.56912 5.05088,-5.33836 3.77043,-5.51367 6.2868,-13.19492 6.93733,-21.17629 0.11539,-1.41581 0.10505,-1.90304 -0.0435,-2.05018 -0.15179,-0.15033 -5.16144,-0.15806 -22.6635,-0.0349 -18.589394,0.13078 -22.505224,0.1215 -22.680464,-0.0538 -0.25309,-0.25308 -4.84162,-8.95435 -8.3739,-15.87947 -4.08405,-8.00689 -5.2184,-10.08 -5.51546,-10.08 -0.24746,0 -0.26464,4.62515 -0.24782,66.71421 0.0141,52.09904 0.0606,66.74121 0.21218,66.83755 0.22941,0.14578 3.33418,0.17189 3.70101,0.0311 z m 48.640644,-98.61188 c -0.44685,-0.25631 -1.05147,-0.73821 -1.34358,-1.07092 -0.57485,-0.65472 -1.37621,-2.23913 -1.53517,-3.03523 l -0.0989,-0.49515 2.51948,-0.11238 c 1.50272,-0.067 2.57952,-0.0524 2.66824,0.0363 0.1465,0.14649 -0.0953,1.73131 -0.62043,4.06633 -0.2835,1.26061 -0.38745,1.30056 -1.58968,0.611 z m -24.47391,98.55929 c 0.0509,-0.0823 -0.18969,-0.71234 -0.53463,-1.4 -2.886994,-5.75538 -1.786594,-12.31114 2.80315,-16.7001 1.86976,-1.78796 3.77496,-2.87014 6.21784,-3.53179 1.74124,-0.4716 5.23353,-0.50899 6.86649,-0.0735 2.63392,0.70244 4.88954,1.9742 6.6622,3.75628 2.486,2.4992 3.85547,5.47051 4.13731,8.97667 0.14866,1.84937 0.26648,2.19995 0.90922,2.70553 0.93836,0.73812 2.31932,0.50722 2.95313,-0.49376 0.30655,-0.48416 0.32826,-0.69448 0.25272,-2.44963 -0.0996,-2.31545 -0.58942,-4.26509 -1.61579,-6.43176 -4.4069,-9.30304 -15.29228,-13.20829 -24.48528,-8.78435 -7.954004,3.8277 -12.057824,12.59189 -9.896964,21.13611 0.34189,1.35187 1.00756,3.00341 1.30591,3.24 0.30168,0.23923 4.279984,0.28445 4.424694,0.0503 z m 53.46452,-0.10963 c 0.86107,-0.40861 3.47709,-2.98928 4.76979,-4.70536 2.03386,-2.69995 3.37512,-5.53567 4.1689,-8.81386 1.71539,-7.08438 0.0752,-14.57549 -4.45731,-20.35715 -1.59335,-2.03248 -4.32967,-4.51898 -5.81159,-5.28099 -1.47915,-0.76058 -3.08795,0.13616 -3.08795,1.72123 0,0.9069 0.28366,1.29549 1.7407,2.38454 5.20941,3.8938 8.07031,9.54834 8.07031,15.95093 0,6.35047 -2.79527,11.94848 -7.90008,15.82128 -1.32603,1.006 -3.89152,2.37847 -5.27093,2.81978 -0.484,0.15486 -0.94168,0.31696 -1.01709,0.36024 -0.44409,0.25496 0.74482,0.35408 4.27291,0.35625 3.33794,0.002 4.06351,-0.0392 4.52234,-0.25689 z m 12.48942,-63.33992 c 0.95248,-0.28285 2.1693,-1.29215 2.61784,-2.17138 0.17164,-0.33641 0.96684,-3.33364 1.76712,-6.66051 1.27615,-5.30504 1.44628,-6.18017 1.38349,-7.11688 -0.10933,-1.63096 -0.94787,-2.85363 -2.49739,-3.64145 -0.6428,-0.32682 -7.61795,-2.09052 -8.26765,-2.09052 -0.22661,0 -0.55739,0.0778 -0.73505,0.17288 -0.43436,0.23247 -0.81783,1.19215 -0.69671,1.7436 0.19344,0.88077 0.596,1.05812 4.54883,2.00408 2.05911,0.49277 3.8745,0.96589 4.03421,1.05136 0.36848,0.1972 0.61773,0.65952 0.61773,1.14578 0,0.64424 -2.72226,11.70019 -2.97672,12.08944 -0.52507,0.80318 -0.55926,0.79873 -8.44107,-1.09853 -7.98253,-1.92152 -8.10221,-1.96542 -8.10221,-2.97293 0,-0.29068 0.61704,-3.10414 1.37122,-6.25211 1.03321,-4.31273 1.4542,-5.8123 1.70788,-6.08357 0.38671,-0.4135 1.0794,-0.4655 2.33618,-0.1754 0.62899,0.14518 0.90645,0.14038 1.29976,-0.0225 0.89243,-0.36965 1.24712,-1.626 0.67062,-2.37542 -0.57395,-0.74613 -3.28643,-1.21231 -4.7268,-0.81237 -0.7475,0.20755 -2.08425,1.41304 -2.52508,2.27715 -0.48236,0.94549 -3.20616,12.33261 -3.207,13.40717 -0.002,1.58139 0.93794,3.13003 2.33461,3.8496 0.47903,0.2468 7.27099,1.95129 15.37861,3.85939 0.63398,0.1492 1.31635,0.10814 2.10758,-0.12683 z m 14.22706,-50.4945 c 0.20282,-0.19052 0.41258,-0.54592 0.46613,-0.78976 0.11773,-0.53598 -0.25856,-1.50963 -0.66722,-1.72649 -0.39283,-0.20845 -6.28349,-1.62999 -6.75448,-1.62999 -0.53661,0 -1.45921,0.97672 -1.45848,1.544 0.002,0.72952 0.54053,1.45434 1.23176,1.65469 2.226,0.6452 5.80739,1.42447 6.27059,1.36439 0.29863,-0.0387 0.70888,-0.22629 0.9117,-0.41684 z m -31.87622,-29.11785 c 0.54462,-0.4284 0.57908,-1.26919 0.0714,-1.74215 -0.19259,-0.17944 -0.42659,-0.32625 -0.52,-0.32625 -0.0934,-2e-5 -4.66283,-0.36002 -10.1543,-0.8 -11.63686,-0.93239 -11.74194,-0.93624 -12.08645,-0.44439 -0.43475,0.62069 -0.25515,1.55584 0.34648,1.80415 0.24899,0.10275 19.82667,1.77403 21.34287,1.82197 0.36512,0.0115 0.7339,-0.104 1,-0.31333 z m 9.22492,-2.40079 c 0.29002,-1.07704 0.18439,-1.3007 -0.72334,-1.53171 -0.99682,-0.25368 -1.16982,-0.11797 -1.30504,1.02373 l -0.0972,0.8203 0.54109,0.15562 c 0.29761,0.0856 0.73633,0.1621 0.97494,0.17003 0.37629,0.0125 0.45712,-0.0721 0.6095,-0.63797 z m -37.70492,0.16079 c 0.57897,-0.45541 0.60068,-1.46367 0.0394,-1.83139 -0.49295,-0.323 -24.397594,-2.28216 -25.049264,-2.05298 -0.22432,0.0789 -0.50453,0.34514 -0.62269,0.59167 -0.28052,0.58528 -0.009,1.28945 0.58782,1.52523 0.31048,0.12262 21.557124,1.94416 24.284694,2.08198 0.18614,0.009 0.52814,-0.13213 0.76,-0.31451 z m 28.48,-0.96 c 0.27716,-0.21802 0.42158,-0.48599 0.42158,-0.78227 0,-0.98675 -0.14408,-1.04714 -6.72874,-2.82 -3.3832,-0.9109 -6.42126,-1.65842 -6.75126,-1.66114 -0.72886,-0.006 -1.24,0.44208 -1.24,1.08714 0,0.90289 0.35384,1.04734 6.89326,2.81405 3.38071,0.91334 6.33503,1.66809 6.56516,1.67723 0.23014,0.009 0.60814,-0.13263 0.84,-0.31501 z m 1.33126,-3.21627 c 0.44203,-0.41527 0.48096,-1.08415 0.0903,-1.55203 -0.40312,-0.48285 -24.54725,-12.18008 -25.14075,-12.18008 -0.32368,0 -0.58215,0.13491 -0.80763,0.42158 -0.43175,0.54886 -0.421,1.12419 0.0284,1.51858 0.59309,0.52052 24.4752,12.1076 24.98968,12.12446 0.27886,0.009 0.62014,-0.12597 0.84,-0.33251 z m -16.9824,-1.00483 c 0.48944,-0.48946 0.50141,-1.0696 0.0327,-1.58637 -0.30827,-0.33991 -1.71531,-0.75775 -9.79301,-2.90821 -7.33693,-1.95325 -9.52233,-2.47984 -9.83504,-2.36987 -0.87357,0.30721 -1.04928,1.54995 -0.28941,2.04689 0.37909,0.24792 18.49956,5.17074 19.12474,5.19564 0.202,0.008 0.544,-0.16208 0.76,-0.37808 z m -22.56001,-6.08 c 0.216,-0.216 0.39273,-0.56804 0.39273,-0.78229 0,-0.91384 -0.18298,-0.98696 -7.12356,-2.84664 -6.300994,-1.68831 -6.576124,-1.74741 -7.061604,-1.51722 -0.67433,0.31975 -0.86224,1.07735 -0.41621,1.67803 0.27908,0.37586 0.98626,0.60341 6.616924,2.12917 3.46745,0.9396 6.50572,1.7136 6.75172,1.72 0.27314,0.007 0.60017,-0.14123 0.84,-0.38105 z m 10.19273,-7.31183 c 0.32712,-0.38659 0.36518,-1.08115 0.08,-1.45997 -0.31945,-0.42432 -18.25213,-9.07548 -18.81227,-9.07548 -1.02695,0 -1.49831,1.48902 -0.65461,2.06792 0.1827,0.12534 4.37649,2.19752 9.31953,4.60483 9.46838,4.61118 9.44243,4.60123 10.06735,3.8627 z M 92.625926,90.081481 v -2.64 h -29.04 -29.04 l -0.04435,2.47328 c -0.02439,1.3603 -0.01251,2.55626 0.02641,2.65767 0.05308,0.13834 7.316872,0.17998 29.08435,0.16672 l 29.01359,-0.01767 z M 238.78593,307.18253 c -0.68968,-0.27359 -1.43741,-1.13405 -1.67206,-1.92423 -0.3225,-1.08596 -0.46181,-4.13779 -0.26492,-5.8034 0.31471,-2.66216 1.16303,-3.60567 3.24656,-3.61079 1.23655,-0.003 1.79724,0.17251 2.40615,0.75338 0.81289,0.77547 1.00459,1.71801 1.00142,4.92398 -0.004,3.87255 -0.32443,4.89167 -1.74133,5.53514 -0.7192,0.32661 -2.3011,0.39355 -2.97582,0.12592 z m 2.19637,-1.93123 c 0.10897,-0.0904 0.27099,-0.42668 0.36,-0.74714 0.22549,-0.81182 0.19157,-5.24912 -0.0454,-5.9373 -0.37967,-1.10256 -1.62135,-1.27222 -2.12884,-0.29086 -0.319,0.61688 -0.4799,3.32338 -0.30716,5.16675 0.10248,1.09359 0.17817,1.31648 0.58539,1.7237 0.3764,0.37641 0.55261,0.44638 0.90277,0.35849 0.23929,-0.0601 0.52424,-0.1832 0.63323,-0.27364 z m 6.41025,1.96016 c -1.06502,-0.34103 -1.8494,-1.27719 -2.1198,-2.52999 l -0.11224,-0.52 h 1.03705 c 1.01104,0 1.04131,0.0122 1.20631,0.48549 0.34004,0.97546 1.7246,1.1475 2.32592,0.28901 0.66204,-0.94522 0.0945,-1.85661 -1.65496,-2.65749 -2.2493,-1.0297 -2.7289,-1.60576 -2.7289,-3.27774 0,-1.94293 1.2724,-3.16322 3.29051,-3.15575 1.77298,0.007 3.06088,1.02285 3.15077,2.48631 l 0.0387,0.63017 -0.8,0.0416 c -0.9051,0.0471 -1.0225,-0.0114 -1.36494,-0.67949 -0.32636,-0.63668 -0.994,-0.87161 -1.56596,-0.55102 -1.20334,0.67453 -0.92155,1.94104 0.5873,2.63944 0.49698,0.23003 1.20792,0.56139 1.57987,0.73632 1.69055,0.79514 2.2596,2.77869 1.32355,4.61349 -0.49873,0.97761 -1.41532,1.50342 -2.70214,1.55008 -0.58173,0.0211 -1.2527,-0.0241 -1.49106,-0.10043 z m 11.39175,-0.20999 c -0.78867,-0.53677 -1.1056,-1.05848 -1.2749,-2.09862 -0.20512,-1.26034 0.039,-2.3564 0.68999,-3.09783 0.6551,-0.74609 1.3091,-1.00355 2.5494,-1.00355 0.57466,0 1.09623,-0.0831 1.20514,-0.192 0.10899,-0.10899 0.192,-0.63094 0.192,-1.20728 0,-0.86461 -0.0583,-1.07355 -0.39272,-1.408 -0.216,-0.216 -0.57928,-0.39272 -0.80728,-0.39272 -0.45333,0 -1.2,0.64071 -1.2,1.02968 0,0.29906 -0.54274,0.4496 -1.37525,0.38146 -0.60979,-0.0499 -0.62432,-0.0655 -0.60657,-0.65029 0.0818,-2.69634 4.62796,-3.51778 5.98182,-1.08085 l 0.4,0.72 v 4.56 4.56 l -0.92,0.048 c -0.73006,0.0381 -0.92,-0.002 -0.92,-0.19056 0,-0.42487 -0.28536,-0.43128 -0.89133,-0.0201 -0.78462,0.53247 -1.8844,0.55029 -2.6303,0.0426 z m 2.82638,-1.7807 c 0.3908,-0.33615 0.45016,-0.51429 0.50709,-1.52175 0.0813,-1.43974 -0.0812,-1.68291 -1.05205,-1.57348 -0.84981,0.0958 -1.26921,0.4539 -1.48944,1.27176 -0.43086,1.60012 0.90355,2.79619 2.0344,1.82347 z m 21.89525,1.91392 c -0.68582,-0.30611 -1.3072,-1.02483 -1.60419,-1.85549 -0.34573,-0.96694 -0.48968,-4.3445 -0.25819,-6.05826 0.33241,-2.46108 1.25337,-3.38217 3.37628,-3.37683 2.16776,0.005 2.95608,0.97482 3.23986,3.98397 0.0913,0.9676 0.12323,1.87045 0.0711,2.00632 -0.079,0.20576 -0.45352,0.24707 -2.24024,0.24707 -2.56419,0 -2.59826,0.0202 -2.44872,1.4508 0.11686,1.1181 0.28403,1.49003 0.83069,1.84823 0.55923,0.36641 1.28152,0.0489 1.64366,-0.7225 0.25462,-0.54238 0.32048,-0.57939 1.112,-0.62494 1.00226,-0.0577 1.1428,0.1328 0.84142,1.14043 -0.28566,0.9551 -0.75496,1.5412 -1.50784,1.88312 -0.77777,0.35321 -2.34945,0.39337 -3.05582,0.0781 z m 2.63899,-6.732 c 0.31986,-0.38541 0.0559,-1.96088 -0.40592,-2.42269 -0.8555,-0.8555 -1.88998,-0.21926 -2.07699,1.27741 -0.16533,1.32326 -0.11352,1.38406 1.17931,1.38406 0.78491,0 1.16288,-0.0692 1.3036,-0.23878 z m 5.68101,6.65638 c -0.77456,-0.35749 -1.26202,-0.86401 -1.59237,-1.65464 -0.46067,-1.10254 -0.37974,-1.24296 0.71634,-1.24296 0.85219,0 0.97992,0.0418 1.10163,0.36 0.29422,0.76936 1.04666,1.14973 1.77326,0.89642 0.58168,-0.20277 0.80114,-0.56112 0.80114,-1.30818 0,-0.81011 -0.38333,-1.16571 -2.24566,-2.08329 -1.52207,-0.74992 -1.70708,-0.88988 -2.03434,-1.53885 -0.81637,-1.61893 -0.1405,-3.61227 1.47338,-4.34535 0.77224,-0.35078 2.27616,-0.39297 3.01425,-0.0846 0.70015,0.29255 1.5133,1.25285 1.64207,1.93922 0.16576,0.88361 0.0299,1.04462 -0.88143,1.04462 -0.77006,0 -0.81429,-0.0245 -1.11821,-0.62027 -0.17403,-0.34114 -0.43339,-0.66514 -0.57633,-0.72 -1.23303,-0.47315 -2.33122,0.87882 -1.58234,1.94798 0.13827,0.19741 0.99587,0.71533 1.90579,1.15095 2.07039,0.99117 2.37642,1.36161 2.45791,2.97525 0.0626,1.23923 -0.22144,2.04795 -0.9617,2.73846 -0.9156,0.85405 -2.68683,1.1021 -3.89339,0.54523 z m 12.56,0.12346 c -0.70723,-0.28055 -1.43714,-1.1337 -1.6911,-1.97669 -0.33295,-1.10518 -0.46506,-4.1892 -0.25269,-5.89878 0.31534,-2.53839 1.22245,-3.46837 3.37769,-3.46295 2.16202,0.005 2.95504,0.97642 3.246,3.9745 0.0931,0.95918 0.12445,1.86072 0.0697,2.00342 -0.085,0.22141 -0.41406,0.25944 -2.24499,0.25944 -2.56419,0 -2.59826,0.0202 -2.44872,1.4508 0.11686,1.1181 0.28403,1.49003 0.83069,1.84823 0.55923,0.36641 1.28152,0.0489 1.64366,-0.7225 0.25462,-0.54238 0.32048,-0.57939 1.112,-0.62494 1.00226,-0.0577 1.1428,0.1328 0.84142,1.14043 -0.28566,0.9551 -0.75496,1.5412 -1.50784,1.88312 -0.7192,0.32661 -2.3011,0.39355 -2.97582,0.12592 z m 2.64296,-6.87035 c 0.0575,-0.18112 0.054,-0.69676 -0.008,-1.14584 -0.29544,-2.1481 -2.28818,-2.07717 -2.55909,0.0911 -0.16701,1.33673 -0.12365,1.38406 1.26811,1.38406 1.06498,0 1.20556,-0.0356 1.29877,-0.32929 z m 31.75541,6.68929 c -0.9109,-0.61995 -1.18179,-1.13169 -1.25143,-2.36409 -0.0858,-1.51837 0.0594,-2.14087 0.65845,-2.82316 0.66312,-0.75524 1.31338,-1.01275 2.55747,-1.01275 0.57466,0 1.09623,-0.0831 1.20514,-0.192 0.10899,-0.10899 0.192,-0.63094 0.192,-1.20728 0,-0.86461 -0.0583,-1.07355 -0.39272,-1.408 -0.216,-0.216 -0.57928,-0.39272 -0.80728,-0.39272 -0.45333,0 -1.2,0.64071 -1.2,1.02968 0,0.29906 -0.54274,0.4496 -1.37525,0.38146 -0.60979,-0.0499 -0.62432,-0.0655 -0.60657,-0.65029 0.0253,-0.83277 0.6855,-1.76694 1.54177,-2.18147 1.3889,-0.67234 3.50258,-0.31224 4.23771,0.72198 0.5962,0.83872 0.68052,1.58351 0.68144,6.01864 l 0.002,4.28 h -0.96 c -0.7292,0 -0.96,-0.0554 -0.96,-0.23056 0,-0.41691 -0.289,-0.42083 -0.89132,-0.0122 -0.78463,0.53247 -1.8844,0.55029 -2.63031,0.0426 z m 2.82638,-1.7807 c 0.3908,-0.33615 0.45016,-0.51429 0.50709,-1.52175 0.0798,-1.41228 -0.0902,-1.68673 -0.9713,-1.56854 -0.87105,0.11683 -1.36254,0.4957 -1.55102,1.19562 -0.44296,1.64502 0.87018,2.8796 2.01523,1.89467 z m 17.05095,1.80173 c -1.294,-0.64052 -1.79328,-2.14983 -1.79328,-5.42103 0,-4.3224 0.87924,-5.76398 3.51148,-5.75736 2.18564,0.005 2.94927,0.96615 3.21682,4.04675 0.0897,1.0333 0.11979,1.94888 0.0668,2.03466 -0.0548,0.0886 -1.01619,0.15595 -2.22736,0.15595 -2.5606,0 -2.58011,0.0122 -2.43976,1.51506 0.11106,1.18921 0.3225,1.60174 0.95538,1.8639 0.38794,0.16069 0.5168,0.14189 0.87854,-0.12821 0.23317,-0.17408 0.54044,-0.5267 0.68284,-0.78363 0.23657,-0.42683 0.33366,-0.46712 1.12588,-0.46712 0.80578,0 0.87024,0.0282 0.91322,0.4 0.0254,0.22 -0.15456,0.796 -0.4,1.28 -0.35066,0.69152 -0.59915,0.95711 -1.16014,1.24 -0.9552,0.48168 -2.38159,0.49069 -3.3304,0.021 z m 2.84224,-6.61855 c 0.30089,-0.36254 -0.0499,-2.15864 -0.49266,-2.52248 -0.70522,-0.57952 -1.62163,-0.19101 -1.89818,0.80472 -0.18726,0.67427 -0.22043,1.68863 -0.0604,1.84861 0.2221,0.22211 2.2481,0.11395 2.45127,-0.13085 z m 12.24206,6.73074 c -1.33538,-0.59605 -1.82038,-1.75547 -1.9465,-4.65322 -0.21454,-4.92941 0.67956,-6.64437 3.4604,-6.63736 2.16202,0.005 2.95504,0.97642 3.246,3.9745 0.0931,0.95918 0.12445,1.86072 0.0697,2.00342 -0.085,0.22141 -0.41406,0.25944 -2.24499,0.25944 -2.56419,0 -2.59826,0.0202 -2.44872,1.4508 0.11686,1.1181 0.28403,1.49003 0.83069,1.84823 0.55923,0.36641 1.28152,0.0489 1.64366,-0.7225 0.25462,-0.54238 0.32048,-0.57939 1.112,-0.62494 1.00226,-0.0577 1.1428,0.1328 0.84142,1.14043 -0.28566,0.9551 -0.75496,1.5412 -1.50784,1.88312 -0.77777,0.35321 -2.34945,0.39337 -3.05582,0.0781 z m 2.63899,-6.732 c 0.31986,-0.38541 0.0559,-1.96088 -0.40592,-2.42269 -0.8555,-0.8555 -1.88998,-0.21926 -2.07699,1.27741 -0.16533,1.32326 -0.11352,1.38406 1.17931,1.38406 0.78491,0 1.16288,-0.0692 1.3036,-0.23878 z m 9.50795,6.80376 c -0.4879,-0.19738 -1.14945,-1.04754 -1.34616,-1.72995 -0.26779,-0.92908 -0.38188,-4.90477 -0.18595,-6.47988 0.20871,-1.67782 0.51963,-2.3991 1.22109,-2.83262 0.61954,-0.3829 1.88509,-0.42494 2.48408,-0.0825 0.76312,0.43624 0.78774,0.38082 0.83536,-1.88 l 0.0446,-2.12 1,-0.0476 1,-0.0476 v 7.60763 7.60763 h -0.90237 c -0.65662,0 -0.95533,-0.0724 -1.09685,-0.266 -0.196,-0.26803 -0.2735,-0.25389 -1.04078,0.18992 -0.43648,0.25247 -1.48498,0.29469 -2.01306,0.0811 z m 2.69306,-2.10952 c 0.24624,-0.29101 0.28,-0.71552 0.28,-3.52045 0,-3.1731 -0.002,-3.19158 -0.39272,-3.58229 -0.82304,-0.82302 -1.72952,-0.37067 -2.01525,1.00567 -0.23886,1.15064 -0.12545,5.22246 0.16226,5.82531 0.38525,0.80718 1.39457,0.94672 1.96571,0.27176 z m 6.39843,1.93715 c -1.33299,-0.67982 -1.65469,-1.54498 -1.75776,-4.72704 -0.0891,-2.74982 0.12208,-4.4249 0.65802,-5.22019 0.55013,-0.81632 1.4448,-1.23965 2.62645,-1.24274 2.43212,-0.006 3.39486,1.34095 3.39486,4.75098 v 1.48638 h -2.128 c -1.44178,0 -2.18992,0.0619 -2.32,0.192 -0.29091,0.29091 -0.23515,1.88211 0.0883,2.51847 0.5339,1.05059 1.75208,0.95336 2.17753,-0.17383 0.19725,-0.52254 0.55167,-0.66355 1.47746,-0.58777 0.61601,0.0504 0.62424,0.0597 0.58813,0.66336 -0.0489,0.81776 -0.62634,1.80641 -1.29711,2.22097 -0.83325,0.51498 -2.61337,0.57557 -3.50784,0.11941 z m 2.80867,-7.4519 c 0.0414,-0.86165 -0.004,-1.03943 -0.37422,-1.48 -0.93907,-1.11602 -2.15288,-0.19844 -2.15288,1.62748 0,0.38416 0.0509,0.74933 0.11301,0.81149 0.0622,0.0622 0.62016,0.0922 1.24,0.0667 l 1.12699,-0.0463 z m 18.81708,7.48448 c -0.70301,-0.33004 -1.17167,-0.88772 -1.50028,-1.78519 -0.2959,-0.80819 -0.41044,-5.24253 -0.17014,-6.58715 0.34906,-1.95317 1.34184,-2.84542 3.17138,-2.85021 2.39076,-0.006 3.2332,1.08594 3.36091,4.35736 l 0.0734,1.88 h -2.14771 c -1.45712,0 -2.20947,0.0618 -2.33973,0.192 -0.29091,0.29091 -0.23515,1.88211 0.0883,2.51847 0.55222,1.08665 1.71462,0.95528 2.21852,-0.25074 0.23052,-0.5517 0.2381,-0.55506 1.14663,-0.50755 l 0.91459,0.0478 -0.0456,0.56 c -0.0705,0.86536 -0.63194,1.86767 -1.26558,2.25927 -0.81336,0.5027 -2.60648,0.58758 -3.50464,0.16592 z m 2.78292,-7.48448 c 0.0414,-0.86165 -0.004,-1.03943 -0.37422,-1.48 -0.84269,-1.00148 -1.94456,-0.40999 -2.10224,1.12848 -0.14163,1.38201 -0.0947,1.433 1.26704,1.37787 l 1.16232,-0.0471 z m 17.62199,7.40846 c -0.87599,-0.46323 -1.36323,-1.35834 -1.5836,-2.90917 -0.33605,-2.36493 -0.11002,-5.65422 0.46613,-6.78357 0.51574,-1.01094 1.15921,-1.36683 2.59024,-1.43254 1.42129,-0.0653 2.17336,0.20571 2.77145,0.99862 0.54826,0.72682 0.72733,1.53749 0.83448,3.77749 0.11555,2.41573 -0.12006,4.41792 -0.62713,5.3293 -0.74591,1.34065 -2.90818,1.83605 -4.45157,1.01987 z m 2.25654,-1.63208 c 0.26336,-0.13619 0.52347,-0.43494 0.59205,-0.68 0.0673,-0.2404 0.12232,-1.70034 0.12232,-3.2443 0,-2.41181 -0.0397,-2.86781 -0.28202,-3.23746 -0.50491,-0.77026 -1.49412,-0.76554 -2.00224,0.01 -0.23452,0.35774 -0.27574,0.84019 -0.27574,3.22786 0,3.00464 0.1283,3.66616 0.77139,3.97707 0.47362,0.22897 0.53538,0.22593 1.07424,-0.0527 z m 14.15437,1.78738 c -0.98491,-0.45295 -1.50595,-1.48556 -1.50595,-2.98447 0,-2.20761 1.12008,-3.34875 3.29453,-3.35648 1.17224,-0.004 1.49142,-0.23872 1.49142,-1.096 0,-1.28465 -0.47077,-2.09134 -1.22691,-2.10243 -0.59263,-0.009 -0.85544,0.17227 -1.18315,0.81464 -0.30053,0.58907 -0.35452,0.62014 -1.07319,0.61782 -1.08523,-0.004 -1.22013,-0.128 -1.00488,-0.92734 0.37538,-1.39405 1.61288,-2.26042 3.23771,-2.26669 1.50056,-0.006 2.30996,0.46733 2.86802,1.67648 0.26478,0.57375 0.29573,1.10797 0.29888,5.16 l 0.004,4.52 h -0.89498 c -0.76041,0 -0.90756,-0.0481 -0.97867,-0.32 -0.10614,-0.40595 -0.21931,-0.40171 -0.76641,0.0286 -0.54756,0.43072 -1.87106,0.55264 -2.55994,0.23584 z m 2.36109,-1.71586 c 0.55278,-0.25186 0.76147,-0.68706 0.86593,-1.80578 0.0758,-0.81219 0.0424,-1.05052 -0.17827,-1.27121 -0.31481,-0.31483 -0.79163,-0.34461 -1.50974,-0.0943 -1.04627,0.36473 -1.34455,2.04174 -0.51131,2.87496 0.50617,0.50617 0.7526,0.56094 1.33339,0.2963 z m 15.63411,1.57139 c -1.40763,-0.7111 -1.7552,-1.78043 -1.7552,-5.4 0,-2.63307 0.16886,-3.73105 0.692,-4.49944 0.6057,-0.88963 1.12685,-1.16438 2.33851,-1.23285 1.36493,-0.0771 2.09451,0.15356 2.71277,0.85768 0.64184,0.73103 0.82154,1.41788 0.93,3.55461 l 0.0914,1.8 h -2.08923 c -1.14909,0 -2.20312,0.0437 -2.34232,0.0971 -0.196,0.0752 -0.25256,0.33688 -0.25074,1.16 0.003,1.22437 0.22731,1.77672 0.84234,2.07162 0.60235,0.28881 1.22817,-0.029 1.59625,-0.81074 0.26261,-0.55771 0.32912,-0.598 0.98724,-0.598 1.05432,0 1.21475,0.10112 1.10184,0.69448 -0.13322,0.69999 -0.58468,1.55631 -1.04884,1.98935 -0.81364,0.75913 -2.63041,0.91006 -3.80598,0.31617 z m 2.8048,-7.53385 c 0,-1.00016 -0.0385,-1.12695 -0.44893,-1.48 -0.94533,-0.81312 -1.87254,-0.21568 -1.99713,1.28684 -0.11151,1.34447 -0.0688,1.38882 1.28374,1.33407 l 1.16232,-0.0471 z m -243.83771,7.37385 c -0.58074,-2.49454 -3.12229,-14.35147 -3.12229,-14.56624 0,-0.25489 0.13253,-0.28241 1.16,-0.24077 l 1.16,0.047 0.91141,5.41808 c 0.50128,2.97994 0.95248,5.45914 1.00267,5.50933 0.25467,0.25467 0.46424,-0.62947 1.28202,-5.40867 0.48924,-2.85931 0.92201,-5.28874 0.96171,-5.39874 0.0484,-0.13419 0.4423,-0.2 1.19717,-0.2 0.89185,0 1.12502,0.0496 1.12502,0.23928 0,0.34714 -3.15816,14.60357 -3.27802,14.79752 -0.0555,0.0898 -0.59924,0.1632 -1.20838,0.1632 -1.01702,0 -1.11435,-0.0294 -1.19131,-0.36 z m 38.28433,0.20559 c -0.74329,-0.23047 -1.4318,-0.82727 -1.74176,-1.50976 -0.27446,-0.60437 -0.29811,-1.1617 -0.30134,-7.10346 l -0.004,-6.44763 1,0.0476 1,0.0476 0.08,6.24 c 0.044,3.432 0.1395,6.33202 0.21222,6.4445 0.0727,0.11246 0.39672,0.32904 0.72,0.48126 0.56159,0.26443 0.58778,0.31235 0.58778,1.07551 v 0.79873 l -0.56,0.03 c -0.308,0.0165 -0.75502,-0.0305 -0.99338,-0.1044 z m 5.25954,-0.0377 c -0.84062,-0.22768 -1.61722,-1.04553 -1.84258,-1.94051 -0.12233,-0.48586 -0.18358,-2.78728 -0.18358,-6.89826 v -6.16915 h 1.04 1.04 v 6.07247 c 0,4.26486 0.0552,6.19369 0.18554,6.47969 0.10204,0.22399 0.46529,0.53064 0.80718,0.68149 0.61539,0.27152 0.62117,0.28238 0.57446,1.08032 -0.0452,0.77142 -0.0678,0.8072 -0.52718,0.83312 -0.264,0.0149 -0.75622,-0.0477 -1.09384,-0.13917 z m 3.41384,-5.24792 v -5.45526 l 1,0.0476 1,0.0476 v 5.36 5.36 l -1,0.0476 -1,0.0476 z m 34.02667,5.33333 c -0.0587,-0.0587 -0.10667,-2.57866 -0.10667,-5.6 v -5.49333 h 0.96 c 0.55282,0 0.96,0.07 0.96,0.16503 0,0.33633 0.47248,0.33011 0.93565,-0.0123 0.66931,-0.49484 2.22173,-0.39781 2.83736,0.17734 0.93785,0.87619 0.94699,0.93477 0.94699,6.06995 v 4.72 l -1,0.0476 -1,0.0476 -0.002,-4.20764 c -0.003,-4.51396 -0.047,-4.79857 -0.818,-5.23129 -0.53106,-0.29808 -1.29202,-0.0238 -1.5589,0.562 -0.11977,0.26291 -0.18075,1.82432 -0.18075,4.6292 v 4.23246 h -0.93333 c -0.51334,0 -0.98134,-0.048 -1.04,-0.10667 z m 12.9261,-0.0945 c -0.0425,-0.11063 -0.0582,-2.61263 -0.035,-5.56 l 0.0422,-5.35887 0.87514,-0.0496 c 0.68686,-0.0389 0.91908,0.0106 1.07942,0.22979 0.1927,0.26352 0.23957,0.25954 0.82664,-0.0704 1.07259,-0.60283 1.92941,-0.47761 3.23653,0.47304 0.20907,0.15205 0.37126,0.10084 0.8592,-0.27134 0.85293,-0.65056 2.3167,-0.7469 3.11441,-0.20496 0.30325,0.206 0.69925,0.62632 0.88,0.93402 0.31148,0.53019 0.32866,0.80628 0.32866,5.27945 v 4.72 l -0.99272,0.0474 -0.99274,0.0475 -0.0473,-4.42152 -0.0473,-4.42152 -0.46611,-0.40071 c -0.36351,-0.31251 -0.57434,-0.37905 -0.95786,-0.30235 -0.97467,0.19493 -0.96853,0.16573 -1.05603,5.01661 l -0.08,4.43459 -1,0.0476 -1,0.0476 v -4.33994 -4.33994 l -0.4677,-0.46769 c -0.56872,-0.56874 -0.97238,-0.58984 -1.56337,-0.0818 l -0.44893,0.38594 -0.0472,4.41406 -0.0472,4.41408 h -0.9578 c -0.62152,0 -0.98488,-0.0706 -1.03497,-0.20113 z m 25.02205,0.0452 c -0.79188,-0.23923 -1.38327,-0.69278 -1.75973,-1.34963 -0.35495,-0.61928 -0.37939,-0.84775 -0.45509,-4.25442 l -0.08,-3.6 -0.52,-0.0501 c -0.50099,-0.0483 -0.52,-0.0761 -0.52,-0.76 0,-0.63405 0.0393,-0.70986 0.368,-0.70986 0.62949,0 0.752,-0.29142 0.752,-1.78894 0,-1.34048 0.0172,-1.40928 0.37525,-1.49914 0.2064,-0.0518 0.6564,-0.0712 1,-0.043 l 0.62475,0.0511 0.0467,1.43167 c 0.0257,0.78742 0.12449,1.52542 0.2196,1.64 0.0951,0.11459 0.45208,0.20833 0.79329,0.20833 h 0.62041 v 0.72 0.72 h -0.608 c -0.3344,0 -0.6944,0.0864 -0.8,0.192 -0.13602,0.13602 -0.192,1.08883 -0.192,3.26773 0,3.05838 0.002,3.07843 0.40546,3.55758 0.223,0.26503 0.565,0.50455 0.76,0.53228 0.31235,0.0444 0.36025,0.1599 0.40252,0.97041 l 0.048,0.92 -0.52799,-0.0138 c -0.29038,-0.008 -0.71931,-0.0716 -0.95316,-0.14219 z m 3.38518,-5.28405 v -5.45526 l 1,0.0476 1,0.0476 v 5.36 5.36 l -1,0.0476 -1,0.0476 z m 13.12,-0.15237 v -5.60763 h 0.96 c 0.85827,0 0.96,0.0344 0.96,0.32503 0,0.42651 0.42019,0.57664 0.76595,0.27368 0.4521,-0.39612 1.27127,-0.75871 1.71408,-0.75871 0.40507,0 0.41469,0.0239 0.36795,0.91621 l -0.048,0.91621 -0.70075,0.11899 c -0.81341,0.13811 -1.36322,0.46016 -1.65362,0.96859 -0.14579,0.25525 -0.22891,1.52395 -0.28563,4.36 l -0.08,4 -1,0.0476 -1,0.0476 z m 40.26667,5.4857 c -0.0587,-0.0587 -0.10667,-2.57866 -0.10667,-5.6 v -5.49333 h 0.95205 c 0.73933,0 0.98766,0.0626 1.11145,0.28 0.13298,0.23357 0.20727,0.24677 0.44796,0.0796 0.6019,-0.418 1.11561,-0.54554 1.93368,-0.48007 0.69112,0.0553 0.94515,0.16456 1.39395,0.59957 0.80008,0.77546 0.89352,1.48432 0.84379,6.40088 l -0.0429,4.24 -0.99272,0.0474 -0.99274,0.0475 -0.0473,-4.42152 -0.0473,-4.42152 -0.44893,-0.38594 c -0.59099,-0.50806 -0.99465,-0.48696 -1.56337,0.0818 l -0.4677,0.46769 v 4.33231 4.3323 h -0.93333 c -0.51334,0 -0.98134,-0.048 -1.04,-0.10667 z m 20.00274,-0.12131 c -0.76648,-0.27816 -1.18071,-0.64986 -1.56643,-1.40565 -0.2694,-0.52782 -0.30298,-0.97347 -0.30298,-4.0204 0,-3.64938 -0.0109,-3.70149 -0.8,-3.81064 -0.34565,-0.0478 -0.40669,-0.14773 -0.4492,-0.73533 -0.0447,-0.61718 -0.015,-0.68022 0.32,-0.68245 0.73402,-0.005 0.84451,-0.21788 0.9292,-1.79123 l 0.08,-1.48632 0.77243,-0.0493 c 1.12075,-0.0715 1.22757,0.0792 1.22757,1.73176 0,1.52536 0.0439,1.59752 0.97309,1.59752 0.44581,0 0.46691,0.0321 0.46691,0.7108 v 0.7108 l -0.68,0.0492 -0.68,0.0492 -0.0433,3.24431 c -0.0276,2.06708 0.0183,3.35953 0.12663,3.56185 0.0935,0.17466 0.43697,0.4433 0.76332,0.59696 0.56796,0.26743 0.59338,0.31363 0.59338,1.07815 v 0.79873 l -0.56,0.0368 c -0.308,0.0202 -0.83477,-0.0629 -1.17059,-0.18478 z m 6.07675,0.0323 c -0.77824,-0.2062 -1.64019,-1.06088 -1.85691,-1.84128 -0.0921,-0.33167 -0.16787,-2.04663 -0.16835,-3.81103 -0.002,-3.39445 -0.0424,-3.592 -0.7529,-3.592 -0.32949,0 -0.368,-0.0754 -0.368,-0.72 0,-0.65144 0.0362,-0.72 0.38042,-0.72 0.59339,0 0.7227,-0.30923 0.77289,-1.84833 l 0.0467,-1.43167 0.62475,-0.0511 c 0.3436,-0.0281 0.7936,-0.009 1,0.043 0.35803,0.0899 0.37525,0.15866 0.37525,1.49914 0,0.87939 0.0718,1.47677 0.192,1.59694 0.1056,0.1056 0.46974,0.192 0.8092,0.192 h 0.6172 l -0.0492,0.68 c -0.0491,0.67829 -0.051,0.68021 -0.7692,0.76 l -0.72,0.08 -0.0434,3.16139 c -0.0492,3.58746 0.0462,4.00706 0.96541,4.24407 0.49942,0.12878 0.51969,0.16617 0.56596,1.04405 l 0.048,0.91049 -0.52799,-0.0165 c -0.29038,-0.009 -0.8042,-0.0897 -1.14182,-0.17915 z M 284.2526,294.27342 c 0.0293,-0.0704 0.34133,-0.68211 0.69333,-1.35931 l 0.64,-1.23126 h 0.76 c 0.418,0 0.75995,0.0533 0.7599,0.11931 -9e-5,0.1408 -1.1003,1.9508 -1.41974,2.33571 -0.22147,0.26685 -1.5401,0.39218 -1.43349,0.13624 z m 74.76403,-1.02329 c -1.04462,-1.61483 -1.042,-1.56866 -0.0896,-1.56866 h 0.81533 l 0.64178,1.27645 c 0.35299,0.70205 0.64179,1.31405 0.64179,1.36 0,0.046 -0.28451,0.0836 -0.63226,0.0836 -0.60875,0 -0.65992,-0.0428 -1.37704,-1.15134 z m -81.8307,-0.12866 v -1.12 h 1.12 1.12 v 1.12 1.12 h -1.12 -1.12 z m 75.36,0 v -1.12 h 1.12 1.12 v 1.12 1.12 h -1.12 -1.12 z"
       id="path1531"
       inkscape:connector-curvature="0"
       sodipodi:nodetypes="ccsccccccsccccccscccsccccccccccssccssccsccccccscccccscccscccscccccccccccccccsscccccscccscccccccccsssccccccccccccccccccsccccsccccccccscsscccccccccsccscsccscccccccccccccccscccccccccccccccccccccccscccccsccssccccsccccccsccccccsscccccscsccsccccccsccccccccccccccscccccccsccsscccccccccccccccscscsscccccccsccccccccccccccscccccccccccscccsccscccccsccccccccccccccsccccccccccscccscscscssccccccsscccccccccscccsccccsccccccccccccscccscccccccccccsccccccccccccscccccsscccccccscsccccccccccsccccccccccsccccccccccccccccsccccccccsccsccccscsccccccccsccccccccccccscccccsccccsccccsccccscscccsccsscsccccccccsccscsccccscccscccccccccccccccscssccsccccccscsccccccccccccsccccccccccccccccccscccccccssscccccscccsssccccccccccccccccccsscsccccscccccscscccccccccccccccsccccsccccccsssccccccscccccccsssccccscsccccccccccccccscccccsccsscccccccccccccccccccc" />
    <path
       style="display:inline;fill:#e85624;stroke-width:0.16"
       d="M 25.505926,193.84514 V 80.328541 c 76.186974,0.0259 -13.035767,-0.0226 70.45657,-0.25043 0.0833,0.21718 6.068444,0.24337 55.615374,0.24337 h 55.52196 l 0.0866,0.36 c 0.0477,0.198 0.067,51.263999 0.0431,113.479989 l -0.0436,113.12 -90.84,0.0402 -90.840004,0.0401 z m 52.30019,108.6602 c 0.13161,-0.15857 0.19008,-15.69908 0.21959,-58.36 l 0.0402,-58.14387 3.52836,6.72 3.52836,6.72 10.95702,0.0411 10.957024,0.0411 1.91462,1.0439 c 2.88984,1.57563 7.22801,3.74072 9.91462,4.94816 1.32,0.59326 3.35599,1.53925 4.52443,2.10219 1.16843,0.56296 2.17643,1.02466 2.24,1.026 0.0636,0.002 0.20936,0.0619 0.32399,0.13464 0.41516,0.26335 -1.45581,4.31679 -3.18754,6.90575 -2.68937,4.02065 -6.37218,6.52209 -10.60842,7.20548 -1.52349,0.24576 -5.51089,0.11928 -7.53246,-0.23894 -5.780484,-1.02429 -12.193384,-3.47224 -17.814414,-6.80018 -1.74859,-1.03524 -2.00166,-1.14169 -2.21267,-0.93068 -0.20917,0.20916 -0.21823,1.27598 -0.0743,8.7411 0.0902,4.67658 0.20814,8.5743 0.26211,8.66163 0.054,0.0873 0.4567,0.15875 0.89498,0.15875 2.55497,0 6.41235,0.74924 9.65534,1.87539 10.564814,3.66874 20.223264,11.62616 27.915004,22.99866 6.48833,9.59322 10.99564,19.27691 13.35796,28.69877 1.20117,4.79069 1.80235,8.91886 1.96123,13.46718 0.0538,1.54 0.16893,2.89 0.25586,3 0.18604,0.23544 3.74145,0.28211 4.10193,0.0539 0.18392,-0.11648 0.20727,-0.72663 0.13299,-3.47755 -0.21086,-7.81052 -2.06342,-16.10188 -5.5716,-24.93631 -2.10955,-5.31241 -6.31328,-13.13227 -10.10152,-18.79109 -5.10087,-7.61958 -10.90951,-13.75748 -17.45459,-18.444 -5.83433,-4.17758 -12.681464,-7.24607 -18.668354,-8.36609 -0.748,-0.13992 -1.51277,-0.28597 -1.69949,-0.32451 -0.3255,-0.0672 -0.3443,-0.18927 -0.45646,-2.96242 -0.0643,-1.59077 -0.0851,-2.92417 -0.0461,-2.96313 0.039,-0.039 0.74837,0.24523 1.57646,0.63156 3.05751,1.42642 7.82697,3.0422 11.105624,3.76231 7.84556,1.72318 13.75138,0.99341 18.75851,-2.31799 1.7561,-1.16137 4.26285,-3.66193 5.67866,-5.66464 1.12883,-1.59675 2.9807,-5.06206 3.71945,-6.96 0.23976,-0.616 0.49256,-1.18033 0.56176,-1.25409 0.0692,-0.0738 1.49082,0.33445 3.15916,0.90712 3.09468,1.06227 7.26838,2.34552 9.92048,3.05014 1.05793,0.28107 1.50979,0.3413 1.58979,0.21184 20.52178,-4.71608 30.33646,6.0523 36.05222,5.08263 0,0.21088 0.59773,0.24235 4.6,0.24227 2.53,-5e-5 5.932,-0.0731 7.56,-0.16229 3.33189,-0.18258 8.65749,-0.62987 8.84,-0.74246 0.066,-0.0407 0.12,-30.16586 0.12,-66.94474 V 85.281181 l -85.96,0.0402 -85.960004,0.0401 0.0034,7.84 0.0034,7.839999 0.766102,2.56 c 5.045828,16.86108 11.640173,31.10027 20.673359,44.64 3.250669,4.87238 5.218201,7.51663 5.379073,7.22918 7.543346,11.95352 11.974666,14.49504 11.974666,14.49504 l 2.16,2.19577 2.16,2.19578 v 64.08877 c 0,51.12132 0.0405,64.10512 0.2,64.16948 0.11,0.0444 1.03718,0.0864 2.06041,0.0933 1.37963,0.009 1.90676,-0.0432 2.03978,-0.20351 z m 9.96533,-107.74387 c -0.0801,-0.154 -1.7094,-3.25528 -3.62055,-6.89174 -1.91115,-3.63645 -3.43713,-6.64942 -3.39107,-6.69549 0.0461,-0.0461 0.75479,0.48611 1.57493,1.18263 4.48276,3.80702 9.58223,7.63836 14.54737,10.92977 l 2.3362,1.54866 -1.7762,0.10237 c -0.97691,0.0563 -3.51967,0.10268 -5.65057,0.10308 -3.52813,0 -3.88739,-0.0243 -4.02011,-0.27928 z m 14.137634,107.79491 c 0.0561,-0.0908 -0.22662,-0.8288 -0.62829,-1.64 -1.0619,-2.14454 -1.408784,-3.60715 -1.431284,-6.03491 -0.0373,-4.02955 1.283544,-7.31816 4.050904,-10.08552 2.76902,-2.76902 6.07337,-4.09672 10.08552,-4.05238 3.93029,0.0434 7.1755,1.44105 9.86243,4.2475 2.35693,2.46173 3.89757,6.01946 3.89757,9.00042 0,2.19673 1.37454,3.40509 3.11661,2.73977 1.09381,-0.41771 1.45045,-1.11086 1.41629,-2.7526 -0.0492,-2.36565 -0.83932,-5.49392 -1.93399,-7.65719 -1.15214,-2.27683 -3.37267,-4.91123 -5.47384,-6.49411 -5.94542,-4.47886 -14.39364,-4.86893 -20.7371,-0.95747 -7.427564,4.57993 -10.636504,13.43256 -7.884544,21.75137 0.70848,2.14165 0.64282,2.10021 3.32713,2.10021 1.360294,0 2.270364,-0.0644 2.332594,-0.16509 z m 53.62605,-0.14577 c 0.86414,-0.39234 3.6915,-3.23138 4.88264,-4.90282 6.88898,-9.66681 5.90752,-22.61542 -2.35184,-31.02859 -1.67515,-1.70635 -3.83838,-3.36034 -4.69752,-3.59168 -1.67126,-0.45002 -3.2425,1.1817 -2.704,2.80811 0.13824,0.41755 0.47782,0.82904 1.08152,1.31055 2.41843,1.92894 3.28728,2.73171 4.25296,3.92942 1.89978,2.35627 3.07413,4.66317 3.87605,7.61406 0.38501,1.41677 0.41627,1.77813 0.41627,4.81181 0,3.03368 -0.0313,3.39504 -0.41627,4.81181 -1.80515,6.64258 -6.59147,11.75378 -12.91855,13.79539 -1.91086,0.61659 -1.28854,0.74285 3.66954,0.74442 3.82493,0.002 4.3055,-0.0284 4.9092,-0.30248 z m 12.71707,-63.32888 c 0.9657,-0.42717 1.80523,-1.19642 2.20336,-2.01885 0.51147,-1.05656 3.23011,-12.48541 3.2285,-13.57224 -0.002,-1.30286 -0.50199,-2.35435 -1.5945,-3.35285 -7.62366,-8.91998 -16.14623,-6.40955 -20.34207,-3.25654 -0.81198,0.73211 -1.11504,1.62746 -2.57419,7.60507 -1.60936,6.593 -1.7328,7.52719 -1.16205,8.79512 0.42989,0.955 1.06035,1.67949 1.87904,2.15927 0.46429,0.27209 3.00635,0.96022 8.26314,2.23683 8.22987,1.99862 8.62936,2.05416 10.09881,1.40416 z m -6.18627,-3.97728 c -1.936,-0.47554 -5.06186,-1.2361 -6.94635,-1.69014 -3.62274,-0.87285 -4.01365,-1.05412 -4.01365,-1.86106 0,-0.53534 2.65517,-11.61166 2.8876,-12.04598 0.23125,-0.4321 0.88114,-0.54455 1.91408,-0.33119 0.49368,0.10197 1.08573,0.18539 1.31568,0.18539 0.50746,0 1.33307,-0.66105 1.4607,-1.16955 0.0918,-0.36593 0.10725,-0.36832 1.25746,-0.19358 l 1.16448,0.17689 -0.051,0.57981 c -0.0679,0.77143 0.35269,1.54267 0.98161,1.80026 0.28016,0.11473 2.09338,0.58619 4.02938,1.04769 3.73056,0.88927 4.24574,1.12125 4.23365,1.90637 -0.004,0.22666 -0.64224,3.03432 -1.41946,6.23925 -1.04771,4.32032 -1.4884,5.88217 -1.70424,6.04 -0.47787,0.34942 -1.41009,0.22462 -5.10995,-0.68416 z"
       id="path1523"
       inkscape:connector-curvature="0"
       sodipodi:nodetypes="cccsccccccccsccccccccccscsccccscsccccccccccccccccccscccsccscccccssccccsccccccccccccccccsccsccccscsccscsccccscccccscccccssccccsccscccccccsccc" />
    <path
       style="display:inline;fill:#2a4b6d;stroke-width:0.16"
       d="m 25.58002,307.16147 c -0.04172,-0.11 -0.05746,-51.176 -0.03498,-113.48 l 0.04089,-113.279989 2.955747,-0.0438 c 1.625663,-0.0241 3.014539,-0.10254 3.086394,-0.17439 0.07186,-0.07181 -1.384231,-10.37186 -3.235747,-22.88896 C 26.540807,44.777228 25.02593,34.433705 25.02593,34.308722 c 0,-0.190141 0.640032,-0.227243 3.92,-0.227243 2.156,0 3.92,0.04431 3.92,0.09847 0,0.350391 1.955827,10.293066 2.083272,10.590555 0.380147,0.88736 0.476728,0.05185 0.476728,-4.124105 v -4.296194 l 1.4,-0.09951 c 0.77,-0.05473 1.796,-0.151194 2.28,-0.214364 l 0.88,-0.114854 0.138162,-0.92 0.138161,-0.92 h 11.07988 11.079879 l 0.202219,1.983339 c 0.111221,1.090837 0.265102,2.080837 0.34196,2.2 0.248064,0.384615 0.418603,-0.133859 0.527949,-1.605094 0.0564,-0.758034 0.14238,-1.648245 0.19118,-1.978245 l 0.0887,-0.6 h 19.50593 c 18.79576,0 19.50594,0.01066 19.50594,0.292821 0,0.161051 -1.58341,10.508038 -3.5187,22.993303 -1.93528,12.48527 -3.46178,22.7574 -3.39222,22.82695 0.0695,0.0696 25.10697,0.14457 55.6387,0.1667 l 55.51226,0.04023 0.0401,113.479989 0.0401,113.48 H 116.381 c -72.432984,0 -90.740433,-0.0403 -90.801,-0.2 z m 31.906464,-4.49657 c 0.132602,-0.15978 0.169212,-22.59829 0.139591,-85.56 l -0.04015,-85.34342 -0.88,-0.08 -0.88,-0.08 -0.04064,-19.4 -0.04064,-19.399999 h 8.00128 8.00128 l -0.0406,19.399999 -0.0406,19.4 -1.36,0.08 -1.36,0.08 -0.0401,85.34342 c -0.0296,62.96171 0.007,85.40022 0.13959,85.56 0.25057,0.30192 133.086755,0.32638 133.388565,0.0246 0.28003,-0.28003 0.28003,-217.415959 0,-217.695989 -0.25608,-0.25608 -171.66025,-0.28234 -172.138523,-0.0264 -0.305509,0.1635 -0.309482,1.56068 -0.309482,108.847999 0,84.31739 0.04304,108.7254 0.192,108.87436 0.299918,0.29992 27.059237,0.27584 27.308558,-0.0246 z M 167.10593,248.68802 c -0.308,-0.0341 -5.24,-1.18303 -10.96,-2.55317 -7.29443,-1.7473 -10.70328,-2.63355 -11.41563,-2.96792 -2.62047,-1.23002 -4.43707,-4.43707 -4.1305,-7.29202 0.12723,-1.18477 5.09248,-21.75345 5.53643,-22.93476 0.4125,-1.09764 1.64306,-2.8828 2.555,-3.7065 0.98078,-0.88587 1.76697,-1.34885 7.68041,-4.52288 4.60922,-2.47398 5.48163,-3.00155 6.33239,-3.8293 0.57536,-0.55979 1.16307,-1.32684 1.40982,-1.84 0.35904,-0.74668 3.31208,-12.439 3.31208,-13.11388 0,-0.11404 -0.25917,-0.4942 -0.57592,-0.8448 -0.88045,-0.97456 -1.1765,-1.76946 -1.18056,-3.16991 -0.006,-2.00805 0.80526,-3.24853 2.69086,-4.11529 0.76644,-0.35231 1.02164,-0.38674 2.47887,-0.33444 l 1.62446,0.0583 0.36314,-1.36 c 0.47869,-1.79276 0.43523,-2.26544 -0.22562,-2.45372 -0.47677,-0.13586 -0.58601,-0.074 -1.96875,1.11494 -2.7557,2.36947 -5.87274,4.17627 -8.76411,5.08016 -1.16519,0.36426 -1.38733,0.38917 -1.92,0.21526 -1.03736,-0.33864 -1.43768,-1.67564 -0.7689,-2.56793 0.12008,-0.16021 0.87301,-0.53469 1.67317,-0.83218 1.99826,-0.74293 3.25078,-1.35893 4.74358,-2.33296 1.80253,-1.17614 3.58978,-2.69027 3.58978,-3.04123 0,-0.16203 -0.1452,-0.53034 -0.32266,-0.81846 -0.58616,-0.95165 -0.95734,-2.46543 -0.95734,-3.90416 0,-1.24431 -0.0273,-1.35823 -0.36,-1.50004 -0.198,-0.0844 -1.85965,-0.51398 -3.69256,-0.95462 -3.55349,-0.85427 -4.02248,-1.06338 -4.66386,-2.07939 -0.35923,-0.56904 -0.46692,-0.62203 -2.09115,-1.02904 -2.02784,-0.50813 -2.48345,-0.72266 -3.01509,-1.41967 -0.71542,-0.93796 -0.77955,-1.71254 -0.31436,-3.79696 0.61062,-2.73612 1.113,-3.51291 2.54032,-3.92783 0.86451,-0.25133 1.31233,-0.20821 3.4716,0.33417 l 1.07139,0.26912 0.83827,-0.41773 c 0.46104,-0.22974 1.08442,-0.41772 1.38528,-0.41772 0.65467,0 22.12355,5.14793 23.0116,5.51787 0.34021,0.14171 0.86144,0.41616 1.15829,0.60988 0.75211,0.49085 9.56291,11.49876 10.06109,12.56997 0.94689,2.03613 0.47526,5.3712 -0.90229,6.38048 -0.51295,0.37583 -1.36946,0.68179 -1.90855,0.68179 -0.22124,0 -1.65329,-0.2996 -3.18235,-0.66577 -2.01397,-0.48231 -2.82835,-0.61751 -2.95525,-0.49061 -0.20046,0.20046 -1.24529,4.38666 -1.24956,5.00645 -0.002,0.25285 0.18683,0.59024 0.49184,0.88 0.74785,0.71048 1.14444,1.61598 1.22195,2.78993 0.0623,0.94365 -0.5761,3.71733 -6.8913,29.94032 -5.06385,21.02699 -7.07745,29.13216 -7.39123,29.75136 -0.86555,1.70808 -2.88502,3.36327 -4.63408,3.79811 -0.83611,0.20789 -2.09744,0.31453 -2.8,0.23676 z m 2.48,-3.71768 c 0.93493,-0.40804 1.93485,-1.57317 2.22834,-2.59656 0.52564,-1.83282 13.69166,-56.7725 13.69166,-57.13307 0,-0.72775 -0.58288,-1.03127 -3.1596,-1.64525 -2.16048,-0.5148 -2.47907,-0.63375 -2.83709,-1.05923 -0.90433,-1.07474 -0.21489,-2.69708 1.14439,-2.69285 0.33676,0.002 1.0083,0.10819 1.4923,0.23809 1.47462,0.39581 1.55411,0.36711 1.85566,-0.67019 0.18191,-0.62574 0.21543,-0.98817 0.10725,-1.15966 -0.15881,-0.25176 -6.55937,-1.91023 -7.42392,-1.92362 -0.37109,-0.006 -0.44309,0.0836 -0.60723,0.75347 -0.10243,0.418 -0.22019,0.87456 -0.26171,1.01458 -0.0415,0.14003 0.14174,0.52792 0.40723,0.862 0.66107,0.83186 0.66654,1.68421 0.015,2.33573 -0.60042,0.60043 -1.00256,0.59902 -3.506,-0.0123 -1.08112,-0.264 -2.21333,-0.48 -2.516,-0.48 -0.72198,0 -1.1903,0.46893 -1.1903,1.19185 0,0.44221 0.11078,0.63636 0.55752,0.97711 0.30662,0.23387 0.70272,0.66019 0.8802,0.94736 0.66808,1.08097 0.62194,1.43883 -1.11441,8.64368 -1.82397,7.56838 -2.17514,8.52883 -3.75563,10.27155 -1.19796,1.32093 -2.11192,1.89392 -8.3934,5.26206 -4.64259,2.48938 -5.47432,2.99266 -6.32353,3.82639 -0.56875,0.55837 -1.15275,1.32817 -1.39591,1.84 -0.35756,0.75267 -5.1991,20.29072 -5.51793,22.26763 -0.24035,1.49032 0.74208,3.2871 2.20264,4.02848 0.59944,0.30427 3.79675,1.14163 10.54045,2.76046 5.324,1.27805 9.968,2.38479 10.32,2.45944 0.79574,0.16877 1.72497,0.0573 2.56,-0.30715 z m 15.9893,-70.98706 c 0.6696,-0.80107 1.63708,-1.33273 2.43529,-1.33829 0.27752,-0.002 1.73755,0.2916 3.24451,0.65232 2.19776,0.52607 2.78653,0.61717 2.97543,0.46042 0.30453,-0.25275 0.30475,-1.37966 0,-1.9632 -0.43626,-0.83637 -8.70352,-11.07184 -9.15527,-11.33486 -0.52668,-0.30668 -21.25155,-5.3224 -21.53792,-5.2125 -0.19646,0.0754 -1.2408,4.05699 -1.23491,4.70814 0.004,0.41548 -0.40329,0.28965 5.6032,1.73202 4.78319,1.14861 5.96546,1.58946 7.1349,2.66046 1.78592,1.6356 2.57609,3.60828 2.40361,6.00056 -0.056,0.77722 -0.11913,1.66512 -0.1402,1.97312 l -0.0383,0.56 3.6,0.90608 c 1.98,0.49834 3.71075,0.91234 3.84611,0.92 0.13538,0.008 0.52381,-0.31827 0.86319,-0.72427 z m -11.43282,-4.27893 c -0.004,-0.8259 -0.49539,-1.9366 -1.16554,-2.63652 -0.58652,-0.6126 -1.32878,-1.04367 -1.55564,-0.90344 -0.22959,0.14188 -0.18845,1.44801 0.0647,2.05385 0.43912,1.05096 1.94096,2.42493 2.44092,2.23307 0.13756,-0.0528 0.21779,-0.33075 0.21558,-0.74696 z m -14.73954,-12.38288 c 0.28543,-1.14715 0.30319,-1.28563 0.18869,-1.47088 -0.16449,-0.26617 -1.93453,-0.70422 -2.11525,-0.5235 -0.21172,0.21173 -0.60396,1.78491 -0.50763,2.03597 0.0919,0.2396 0.99867,0.51702 1.77109,0.54187 0.46525,0.015 0.52794,-0.0402 0.6631,-0.58346 z m -46.61694,-30.35452 c -5.75298,-1.05635 -9.61556,-6.69864 -8.49755,-12.41287 0.16955,-0.86658 0.52614,-1.88754 0.99238,-2.84131 1.46846,-3.00396 4.41557,-5.16536 7.784,-5.70875 0.53805,-0.0868 0.6816,-0.22563 1.41427,-1.36781 2.11605,-3.29872 5.4267,-5.20546 9.36343,-5.39277 2.24686,-0.1069 3.75728,0.19821 5.74347,1.16024 3.93408,1.90549 6.3557,5.54976 6.59475,9.92434 0.36568,6.69184 -4.48075,12.04528 -11.30841,12.49147 l -1.52634,0.0998 -1.04,0.99921 c -1.85532,1.78256 -3.48706,2.64842 -5.76,3.05645 -1.4616,0.26237 -2.29738,0.26061 -3.76,-0.008 z m 3.96354,-4.49821 c 1.60048,-0.55848 2.90976,-1.8189 3.86747,-3.72312 0.36588,-0.72747 0.48284,-0.84157 0.77972,-0.76059 1.77667,0.48459 2.92186,0.60827 4.01362,0.43349 3.52792,-0.5648 6.1912,-3.41212 6.45464,-6.90066 0.38642,-5.11737 -4.69616,-9.19214 -9.58214,-7.68212 -2.48857,0.76909 -4.11121,2.44117 -5.10713,5.26273 l -0.41915,1.18752 -1.74529,0.0236 c -2.1634,0.0292 -3.17815,0.38341 -4.46328,1.55794 -2.74949,2.51288 -2.80853,6.59356 -0.13302,9.19387 1.66255,1.61581 4.15213,2.16893 6.33456,1.40739 z m 51.21012,1.94512 c -3.77024,-0.91437 -6.32558,-4.79358 -5.6816,-8.62511 0.48157,-2.86524 2.39748,-5.10965 5.14794,-6.03061 0.8691,-0.29101 1.31606,-0.33872 2.72,-0.29035 1.54909,0.0534 1.77792,0.10448 2.93669,0.65583 4.68337,2.22836 5.83033,8.36456 2.26261,12.10493 -1.90218,1.99424 -4.72704,2.83008 -7.38564,2.18531 z m 3.74221,-3.5575 c 1.60989,-0.75959 2.56336,-2.43013 2.4021,-4.20861 -0.27221,-3.00189 -3.54656,-4.87892 -6.1733,-3.53886 -0.83781,0.42742 -1.64189,1.23187 -2.02707,2.02804 -0.45075,0.93164 -0.50661,2.57197 -0.11755,3.45149 0.63267,1.43026 1.83555,2.40787 3.29494,2.6779 0.91098,0.16856 1.63467,0.0554 2.62088,-0.40996 z M 64.366486,302.6649 c 0.1326,-0.15978 0.16921,-22.59829 0.13959,-85.56 l -0.04015,-85.34342 h -1.2 -1.2 l -0.04015,85.34342 c -0.02962,62.96171 0.007,85.40022 0.139591,85.56 0.113027,0.13619 0.521513,0.21657 1.100558,0.21657 0.579041,0 0.987531,-0.0804 1.100561,-0.21657 z m 2.86022,-175.75579 c 0.15929,-0.10114 0.19235,-3.43123 0.16,-16.11756 l -0.04078,-15.990069 h -3.6 -3.6 l -0.04078,15.990069 c -0.03235,12.68633 6.4e-4,16.01642 0.16,16.11756 0.110428,0.0701 1.676778,0.12747 3.48078,0.12747 1.804,0 3.37035,-0.0574 3.48078,-0.12747 z m 24.12184,-46.787629 c 0.21581,-0.59474 6.44139,-41.499989 6.33265,-41.608733 -0.0713,-0.07127 -0.51786,-0.107458 -0.99242,-0.08042 l -0.86285,0.04915 -3.32914,13.92 c -1.83103,7.656003 -3.38999,13.981363 -3.46435,14.056353 -0.11232,0.11326 -3.98119,-0.46 -4.13574,-0.61281 -0.0271,-0.0268 0.60952,-6.10739 1.41467,-13.512487 0.80515,-7.405096 1.42356,-13.568941 1.37425,-13.697434 -0.14045,-0.366024 -0.73016,-0.28128 -0.87943,0.126378 -0.0725,0.198 -1.02057,5.562 -2.10683,11.92 -1.08626,6.358003 -2.01637,11.560003 -2.06691,11.560003 -0.0506,0 -0.69188,-5.274 -1.42518,-11.720003 -0.7333,-6.446 -1.39809,-11.7884 -1.47731,-11.872 -0.0908,-0.09583 -0.20378,-0.09225 -0.30571,0.0097 -0.11724,0.117242 -3.35832,20.819453 -3.35832,21.451063 0,0.10117 -3.60794,-0.0861 -4.03887,-0.20964 -0.26104,-0.0748 -0.2815,-0.76217 -0.32,-10.749526 l -0.0411,-10.669577 -1.95572,-0.04489 c -1.92286,-0.04414 -1.95704,-0.03876 -2.03407,0.32 -0.0431,0.20069 -0.53126,5.94489 -1.08482,12.76489 l -1.00647,12.400003 -2.12269,0.0447 c -1.61291,0.0339 -2.139472,-0.004 -2.19256,-0.16 -0.03843,-0.11256 -0.65182,-5.74866 -1.363096,-12.524663 -0.711273,-6.776 -1.33168,-12.447416 -1.378681,-12.603147 -0.07879,-0.261066 -0.349698,-0.279784 -3.473674,-0.24 l -3.388219,0.04315 -0.08,15.92 -0.08,15.92 -2.076586,0.11541 c -1.142121,0.0635 -2.119785,0.0635 -2.172587,0 -0.0528,-0.0635 -0.654005,-7.13541 -1.336009,-15.71541 -0.682004,-8.58 -1.275191,-15.726 -1.318194,-15.88 -0.139541,-0.499709 -0.504462,-0.305814 -0.602262,0.32 -0.05157,0.33 -0.814407,6.972 -1.695191,14.76 -0.880814,7.78794 -1.647318,14.41194 -1.703372,14.71994 l -0.101915,0.56 -0.178087,-0.8 c -0.09795,-0.44 -0.249579,-0.8 -0.336957,-0.8 -0.08796,0 -0.180044,0.57106 -0.20631,1.27944 -0.02609,0.70369 -0.09809,1.32841 -0.16,1.38826 -0.131168,0.12681 -4.006398,0.53179 -4.108802,0.42939 -0.03792,-0.0379 -0.286582,-1.09564 -0.552576,-2.35048 -0.579219,-2.7325 -0.87642,-3.39382 -0.738001,-1.64218 0.0976,1.23513 1.787307,12.84648 1.940614,13.33557 0.08314,0.26524 1.538074,0.28 27.602005,0.28 21.86602,0 27.52914,-0.0411 27.58682,-0.2 z M 372.54593,275.53325 v -2.54823 l 4.2,-0.0518 c 4.11213,-0.0507 4.21656,-0.0602 4.99162,-0.45178 1.30897,-0.66141 1.43809,-1.07262 1.50086,-4.77952 0.031,-1.82947 -0.0101,-3.16208 -0.10019,-3.25219 -0.0969,-0.0969 -0.44576,0.14043 -0.95493,0.64958 -0.65573,0.65573 -1.01182,0.86591 -1.94976,1.1508 -0.99266,0.30151 -1.42147,0.33917 -3.17755,0.27903 -2.32114,-0.0795 -3.36595,-0.41355 -4.17482,-1.33479 -1.36864,-1.5588 -1.50745,-3.41974 -1.41157,-18.92379 0.0788,-12.74283 0.1017,-13.06353 1.04082,-14.58254 0.83451,-1.34978 3.13758,-2.07662 5.9111,-1.86552 1.944,0.14797 2.97885,0.5843 4.07367,1.71768 0.50008,0.5177 0.98293,0.94126 1.07299,0.94126 0.0923,0 0.18426,-0.50625 0.21075,-1.16 l 0.047,-1.16 2.84,-0.0437 2.84,-0.0437 v 20.49043 c 0,17.96814 -0.0308,20.63965 -0.25038,21.70259 -0.66298,3.2097 -2.24111,4.86315 -5.3012,5.55427 -0.93316,0.21075 -2.12437,0.26008 -6.28,0.26008 h -5.12841 z m 9.08296,-14.65941 c 0.7003,-0.29261 1.2611,-0.78642 1.57224,-1.38442 0.3423,-0.6579 0.33341,-21.85382 -0.009,-22.51683 -0.57094,-1.10409 -1.90768,-1.71377 -3.41814,-1.55902 -1.00629,0.1031 -1.51695,0.40061 -1.90428,1.10941 -0.26124,0.47809 -0.28726,1.3226 -0.33384,10.83849 -0.0278,5.676 -0.004,10.76746 0.0521,11.31434 0.17791,1.72342 0.94071,2.41606 2.68352,2.43664 0.42083,0.005 1.03184,-0.10242 1.35783,-0.23861 z m -148.04091,7.91778 c -3.50799,-0.36474 -5.19155,-1.49088 -5.90127,-3.9474 -0.5595,-1.93656 -0.59966,-3.62369 -0.54187,-22.76275 0.062,-20.52019 0.0315,-19.8467 0.98157,-21.72148 1.0647,-2.10109 2.60046,-2.78976 6.89856,-3.09346 2.62587,-0.18554 6.54816,0.007 8.00096,0.3935 1.91939,0.51016 3.18624,1.64466 3.74506,3.35383 0.59182,1.81009 0.70644,3.54406 0.721,10.90761 l 0.0139,7.04 -3.39068,0.0432 -3.39071,0.0432 -0.0493,-6.92315 c -0.0438,-6.15338 -0.0795,-6.97834 -0.32114,-7.4194 -0.47984,-0.876 -0.98722,-1.08624 -2.76818,-1.14707 -1.86392,-0.0637 -2.49995,0.16341 -3.03456,1.08331 -0.32198,0.55405 -0.32544,0.75031 -0.32544,18.48 0,16.83023 0.0172,17.95146 0.28271,18.4373 0.37173,0.68017 1.07897,1.02685 2.29382,1.12437 1.94651,0.15624 3.15256,-0.30402 3.63573,-1.38748 0.12616,-0.28294 0.21053,-2.645 0.26622,-7.45419 l 0.0815,-7.04 3.17946,-0.0434 c 2.37416,-0.0324 3.24093,0.008 3.42216,0.15799 0.21293,0.1767 0.23157,1.09524 0.15189,7.48344 -0.0983,7.87964 -0.24707,9.60955 -0.96653,11.23636 -0.7153,1.6174 -1.87962,2.45855 -4.0707,2.94082 -1.32812,0.29234 -6.88202,0.42627 -8.91423,0.21498 z m 36.55795,0.007 c -3.74523,-0.36794 -4.88574,-1.5102 -5.27267,-5.28072 -0.22418,-2.18453 -0.22418,-26.44872 0,-28.63325 0.092,-0.89678 0.31069,-2.0137 0.4859,-2.48202 0.41959,-1.12145 1.43071,-2.06054 2.57755,-2.39393 2.51791,-0.73197 9.17117,-0.72421 11.39159,0.0133 1.03749,0.34459 2.05393,1.36141 2.39283,2.39373 0.49526,1.5086 0.60037,3.66839 0.55208,11.34555 l -0.0473,7.52 -5.50618,0.0421 c -3.93116,0.0301 -5.57105,0.096 -5.733,0.23039 -0.18932,0.15712 -0.21807,1.04987 -0.17383,5.39787 0.0499,4.91 0.0719,5.24182 0.38091,5.76962 0.409,0.69848 1.0686,0.94193 2.5521,0.94193 1.37066,0 2.10504,-0.24046 2.54501,-0.83333 0.31099,-0.41904 0.33885,-0.69712 0.38873,-3.88 l 0.0538,-3.4286 h 2.78624 2.78626 v 3.48419 c 0,5.47525 -0.3172,7.24142 -1.51579,8.44001 -0.80906,0.80906 -1.75331,1.15548 -3.71104,1.36144 -1.61495,0.16989 -5.16256,0.16565 -6.93317,-0.008 z m 6.368,-22.58935 c 0.26896,-0.26896 0.25371,-9.25737 -0.017,-10.04009 -0.3028,-0.8754 -1.03405,-1.20583 -2.67098,-1.20696 -1.60366,-0.002 -2.30704,0.24548 -2.6857,0.9416 -0.23292,0.42819 -0.27841,1.16113 -0.32673,5.26385 -0.042,3.56807 -0.007,4.82512 0.13774,5 0.25554,0.30791 5.25896,0.34533 5.56269,0.0416 z m 15.51354,22.59643 c -2.37378,-0.30307 -3.65599,-1.11595 -4.17831,-2.64891 -0.47328,-1.38896 -0.61934,-4.11782 -0.54561,-10.19352 0.0663,-5.46467 0.0912,-5.86571 0.42772,-6.89787 0.4608,-1.41322 1.30589,-2.35816 2.54959,-2.85083 0.82334,-0.32616 1.17238,-0.35837 3.86507,-0.35664 1.87027,0.002 3.2117,0.0747 3.6437,0.19977 0.37603,0.10885 0.75403,0.15442 0.84,0.10128 0.096,-0.0593 0.1563,-1.91241 0.1563,-4.80392 0,-3.97072 -0.0407,-4.80892 -0.25984,-5.3567 -0.3808,-0.95173 -0.93722,-1.19574 -2.72843,-1.19648 -2.46992,-0.002 -2.74082,0.4159 -2.75955,4.24739 -0.008,1.70714 -0.0724,2.54826 -0.20418,2.68 -0.13301,0.13301 -0.96275,0.192 -2.70042,0.192 -2.06164,0 -2.54476,-0.0438 -2.71256,-0.24598 -0.29392,-0.35416 -0.099,-6.96011 0.24765,-8.39186 0.49402,-2.04051 1.4381,-2.99878 3.41375,-3.46505 2.24374,-0.52955 8.51745,-0.41586 10.56238,0.19142 1.14443,0.33986 2.15102,1.27847 2.56893,2.39538 0.60667,1.6215 0.65227,2.99875 0.65227,19.70112 0,15.42515 -0.0136,16.19772 -0.28666,16.2844 -1.24761,0.39596 -10.34499,0.69676 -12.5518,0.415 z m 6.50537,-5.06155 c 0.22493,-0.0863 0.25309,-0.80675 0.25309,-6.47437 v -6.37724 l -0.35451,-0.18973 c -0.19499,-0.10435 -1.00499,-0.21981 -1.8,-0.25656 -1.7413,-0.0805 -2.70906,0.16501 -3.19016,0.80926 -0.32499,0.43522 -0.33533,0.61603 -0.33533,5.86557 0,5.24918 0.0104,5.43048 0.33542,5.86835 0.18448,0.24851 0.50848,0.54079 0.72,0.64949 0.39874,0.20491 3.89255,0.28902 4.37149,0.10523 z m -45.46741,-20.65942 0.0405,-25.24346 2.89749,-0.0435 c 2.30704,-0.0346 2.93478,0.002 3.08049,0.177 0.13602,0.16388 0.17263,6.64641 0.14252,25.24351 l -0.0405,25.02301 -3.0805,0.0435 -3.08049,0.0435 z m 57.63431,25.03654 c -0.0419,-0.11 -0.0576,-8.696 -0.035,-19.08 l 0.0412,-18.88 2.84,-0.0437 2.84,-0.0437 0.002,0.92368 c 0.004,1.43429 0.17698,1.54625 1.00296,0.64853 1.34966,-1.46687 3.80238,-2.11092 6.73296,-1.76799 1.89658,0.22194 2.96821,0.67703 3.7884,1.60882 1.41379,1.60614 1.45363,2.20632 1.3988,21.07433 l -0.0456,15.68 -3.07694,0.0434 -3.07695,0.0435 -0.043,-15.75178 c -0.0429,-15.69363 -0.0443,-15.75344 -0.37744,-16.20344 -0.41304,-0.5579 -0.93664,-0.82368 -1.87658,-0.95251 -1.22787,-0.16829 -2.13753,0.0551 -2.85185,0.70048 -1.18004,1.06608 -1.09719,-0.20482 -1.09719,16.8324 v 15.36795 h -3.04502 c -2.28874,0 -3.06394,-0.0497 -3.12117,-0.2 z m 24.56619,-18.92 v -19.12 h 3.04 3.04 v 19.12 19.12 h -3.04 -3.04 z m 12.32,0.004 v -19.12345 h 2.88 2.88 v 1.03056 c 0,0.5668 0.0714,1.07467 0.15861,1.12857 0.0872,0.0539 0.5375,-0.29006 1.00061,-0.7644 1.01494,-1.03956 2.20388,-1.49779 4.28078,-1.64982 3.46336,-0.25354 5.85989,0.69117 6.69846,2.64051 0.72837,1.69311 0.74154,2.03726 0.74154,19.37458 v 16.4 l -3.07547,0.0434 -3.07546,0.0434 -0.0445,-15.64344 c -0.0416,-14.60439 -0.0633,-15.6778 -0.32723,-16.16074 -0.43712,-0.79982 -1.10778,-1.07824 -2.5973,-1.07824 -1.48424,0 -2.06346,0.24058 -2.75173,1.14286 l -0.44827,0.58768 -0.08,15.5325 -0.08,15.5325 -3.08,0.0435 -3.08,0.0435 z m -12.28338,-28.20345 0.0434,-3.16 h 2.96 2.96 l 0.0434,3.16 0.0434,3.16 h -3.04682 -3.04677 z M 233.6835,203.84052 c -3.65467,-0.38432 -5.30131,-1.6635 -6.01877,-4.67563 -0.35734,-1.50022 -0.57954,-6.21389 -0.52621,-11.16307 l 0.0474,-4.4 3.38189,-0.0431 3.38189,-0.0431 0.0624,6.12312 c 0.0581,5.70517 0.0839,6.16611 0.37812,6.75282 0.54968,1.09622 0.97803,1.29032 2.84747,1.29032 1.86203,0 2.47749,-0.22623 2.94557,-1.08271 0.25448,-0.46564 0.28739,-1.1548 0.32968,-6.90142 l 0.047,-6.38413 -0.41494,-0.84808 c -0.52477,-1.07259 -1.14743,-1.53291 -4.63901,-3.42957 -3.66442,-1.99052 -5.4571,-3.17148 -6.54389,-4.31086 -1.87163,-1.96219 -2.08552,-3.14198 -1.96861,-10.8584 0.087,-5.7389 0.21661,-6.90816 0.93578,-8.43912 0.81291,-1.73051 2.19432,-2.58286 4.79403,-2.95798 1.73079,-0.24975 7.3457,-0.25011 9.10269,0 3.03613,0.43115 4.53789,1.73925 5.20043,4.5298 0.29643,1.24848 0.59253,6.65661 0.52799,9.64308 l -0.0484,2.24 h -3.44 -3.44 l -0.08,-4.48 c -0.071,-3.97698 -0.11251,-4.52789 -0.36952,-4.90644 -0.43922,-0.64694 -1.34642,-0.9336 -2.95371,-0.93331 -1.64784,0 -2.33979,0.27395 -2.83133,1.11975 -0.29894,0.5144 -0.32989,0.88491 -0.38011,4.55009 -0.0301,2.19455 -0.007,4.36891 0.0505,4.83192 0.20341,1.62797 0.97175,2.31195 4.97548,4.4293 6.07616,3.21331 7.62113,4.53809 8.34313,7.15401 0.25613,0.92802 0.28557,1.84285 0.28557,8.87468 0,8.23955 -0.0568,9.0708 -0.74613,10.91312 -0.63931,1.70872 -1.99449,2.73699 -4.19067,3.17977 -1.39298,0.28085 -7.15453,0.42467 -9.04563,0.22581 z m 24.29945,0.0125 c -2.7426,-0.28925 -4.14912,-1.11616 -4.78379,-2.81246 -0.57144,-1.52733 -0.65323,-3.63051 -0.65323,-16.79864 0,-13.18619 0.0815,-15.27042 0.65688,-16.80839 0.40891,-1.09292 1.46582,-2.06206 2.61227,-2.39534 2.45911,-0.71488 9.60653,-0.7025 11.6588,0.0202 1.75421,0.61773 2.66773,1.93077 2.99416,4.30354 0.25895,1.88221 0.13053,29.80576 -0.14174,30.82253 -0.10936,0.40838 -0.42867,1.12633 -0.7096,1.59542 -0.57347,0.95762 -1.63104,1.61392 -3.07077,1.90563 -1.04987,0.21274 -7.02582,0.32963 -8.56298,0.16752 z m 5.42741,-5.86355 c 1.19259,-0.47717 1.13565,0.2139 1.13498,-13.77173 0,-12.06377 -0.0104,-12.47192 -0.31235,-12.9671 -0.41354,-0.67823 -1.19538,-0.89874 -2.9293,-0.82621 -1.6071,0.0672 -2.15547,0.36266 -2.48158,1.33702 -0.15959,0.47685 -0.19431,3.26949 -0.16,12.87186 0.0413,11.56054 0.0606,12.28842 0.3359,12.70854 0.16064,0.24512 0.52064,0.54509 0.8,0.66661 0.70558,0.30691 2.82571,0.29578 3.61235,-0.019 z m 17.4784,5.83984 c -2.39049,-0.23064 -3.67601,-0.88362 -4.41592,-2.24307 -0.69398,-1.27507 -0.87507,-2.77589 -0.88133,-7.30432 l -0.006,-4.04015 h 3.04 3.04 l 0.009,3.08 c 0.0102,3.5193 0.11661,4.02354 0.95098,4.5121 0.71243,0.41717 3.15625,0.47107 3.91854,0.0864 0.89442,-0.4513 0.96146,-0.80264 0.96146,-5.03855 0,-3.57459 -0.0226,-3.8787 -0.32621,-4.4 -0.46096,-0.79131 -1.44608,-1.39939 -4.00586,-2.47264 -5.66509,-2.37523 -6.95277,-3.45136 -7.43357,-6.21224 -0.23712,-1.36163 -0.1147,-10.4379 0.15508,-11.49764 0.10396,-0.40839 0.41886,-1.12634 0.69979,-1.59543 0.3999,-0.66779 0.70176,-0.95017 1.39077,-1.30102 1.30745,-0.66576 2.54745,-0.8192 6.64,-0.82165 7.9118,-0.005 8.74524,0.73547 8.9863,7.98134 0.0871,2.61776 0.0671,3.06896 -0.14362,3.24386 -0.1819,0.15096 -0.95859,0.19187 -3.02372,0.15928 l -2.7789,-0.0439 -0.0933,-2.08 c -0.10657,-2.3772 -0.24491,-2.83291 -0.97987,-3.22766 -0.79866,-0.42896 -3.21046,-0.40734 -3.96688,0.0356 -0.81848,0.47925 -0.94109,1.01661 -0.94746,4.15209 -0.008,3.84079 0.21079,4.21908 3.15941,5.4678 2.31189,0.97907 6.07071,2.92212 6.85464,3.54337 0.60194,0.47704 0.97155,0.94955 1.36,1.73859 l 0.53341,1.08351 v 5.92337 c 0,4.23021 -0.0603,6.24351 -0.21098,7.04336 -0.5507,2.92338 -1.71512,3.87996 -5.1524,4.23268 -1.84614,0.18945 -5.34145,0.18692 -7.33379,-0.005 z m 22.74642,-0.007 c -1.49354,-0.1567 -2.87789,-0.62277 -3.56357,-1.19973 -0.662,-0.55704 -1.24502,-1.85664 -1.46258,-3.26022 -0.10228,-0.66 -0.19433,-2.964 -0.20454,-5.12 l -0.0186,-3.92 h 3.04 3.04 l 0.08,3.30883 c 0.0735,3.04008 0.10723,3.34526 0.41533,3.75741 0.45797,0.61261 1.46814,0.8947 2.86467,0.79995 2.39736,-0.16264 2.5295,-0.39971 2.61094,-4.6835 0.10567,-5.55829 0.0179,-5.69917 -4.77094,-7.6569 -4.58222,-1.87325 -6.2484,-3.11896 -6.87227,-5.13797 -0.65005,-2.10374 -0.60472,-10.53822 0.0688,-12.80625 0.51716,-1.74144 1.6868,-2.70839 3.77354,-3.11959 1.61371,-0.31798 8.38728,-0.27133 9.90992,0.0683 1.94003,0.43269 2.92478,1.32104 3.48038,3.13971 0.22004,0.72026 0.27264,1.56152 0.27576,4.41005 l 0.004,3.52 h -2.88 -2.88 l -0.0897,-2.01373 c -0.10064,-2.25925 -0.30211,-2.93109 -0.98483,-3.28413 -0.66258,-0.34264 -2.44307,-0.44269 -3.39986,-0.19107 -0.60331,0.15867 -0.88233,0.3397 -1.16,0.75259 -0.34782,0.51723 -0.3656,0.68664 -0.3656,3.48514 0,3.31736 0.0894,3.70595 1.03149,4.48248 0.32519,0.26805 1.32413,0.79681 2.21987,1.17504 2.38856,1.00856 5.33829,2.50193 6.37756,3.2288 1.04936,0.73392 1.65744,1.53609 1.98206,2.61475 0.282,0.93699 0.3287,11.68083 0.058,13.34917 -0.33454,2.06209 -1.17859,3.28454 -2.6472,3.83403 -1.57035,0.58754 -6.55115,0.82166 -9.93256,0.46688 z m 22.88,0 c -2.52355,-0.26477 -4.04261,-1.18958 -4.58928,-2.79398 -0.54659,-1.6042 -0.60138,-3.39757 -0.54443,-17.82597 0.0511,-12.94642 0.08,-14.24227 0.33753,-15.12 0.77426,-2.63888 2.20352,-3.33883 7.22693,-3.53919 2.82594,-0.11272 5.89126,0.10304 7.2836,0.51264 1.12101,0.32978 2.24142,1.4306 2.61109,2.56538 0.52096,1.59928 0.58531,3.42686 0.58531,16.62117 0,13.20569 -0.0641,15.02134 -0.58739,16.62739 -0.35272,1.08266 -1.31232,2.08216 -2.38399,2.48312 -1.5616,0.58427 -6.58406,0.82149 -9.93937,0.46944 z m 5.71075,-5.86109 c 1.1815,-0.59023 1.12862,0.0881 1.08182,-13.87975 -0.046,-13.71289 0.0123,-12.94801 -1.02452,-13.44004 -0.70138,-0.33282 -3.10972,-0.32501 -3.82076,0.0125 -1.07699,0.51103 -1.03654,-0.0184 -1.03654,13.56855 0,13.75898 -0.0373,13.2897 1.09253,13.75869 0.84445,0.35056 2.98896,0.33906 3.70747,-0.0199 z m 28.5813,5.86488 c -2.02048,-0.21317 -2.888,-0.53306 -3.77306,-1.39125 -1.51878,-1.47269 -1.60317,-2.4303 -1.60317,-18.19338 0,-15.68416 0.085,-16.66836 1.56696,-18.14416 1.01567,-1.0114 1.89845,-1.27451 5.02943,-1.49896 2.87382,-0.206 6.71966,0.006 7.9675,0.43903 0.88768,0.30811 1.8269,1.05734 2.1793,1.73849 0.7223,1.39608 0.74336,1.67848 0.81004,10.86354 l 0.0636,8.75795 -5.65095,0.0421 -5.65094,0.0421 -0.0476,5.2 c -0.056,6.11981 -0.0317,6.27676 1.04351,6.75239 0.60219,0.26637 0.9728,0.31259 2.05241,0.25592 2.45708,-0.12905 2.63167,-0.45568 2.63167,-4.92326 v -3.20514 h 2.8179 2.81791 l -0.0797,4.52 c -0.095,5.38992 -0.24728,6.1728 -1.44709,7.44039 -0.65098,0.68776 -1.8857,1.13021 -3.68216,1.3195 -1.72062,0.1813 -5.25515,0.17365 -7.04558,-0.0152 z m 6.57971,-27.34463 c 0.0455,-5.42256 -0.007,-5.74824 -1.00101,-6.23427 -0.62187,-0.30398 -3.01466,-0.32397 -3.70877,-0.031 -0.95957,0.40504 -1.01123,0.71885 -1.01123,6.14275 0,2.67804 0.0496,4.91879 0.11032,4.97946 0.0607,0.0607 1.33867,0.0907 2.84,0.0667 l 2.72968,-0.0437 z m 61.18989,27.34804 c -2.57485,-0.24868 -3.74652,-0.88136 -4.49354,-2.42647 -0.80043,-1.6556 -0.84347,-2.66267 -0.77787,-18.20157 0.0501,-11.86955 0.096,-14.13502 0.30121,-14.88732 0.50351,-1.84543 1.3666,-2.80736 2.94514,-3.28244 2.36256,-0.71102 9.09282,-0.70102 11.56338,0.0172 1.78843,0.5199 2.73246,1.93003 3.06441,4.57736 0.2248,1.7928 0.2248,27.43763 0,29.23043 -0.43494,3.4687 -1.63867,4.6041 -5.27701,4.97746 -1.84377,0.18921 -5.34148,0.18699 -7.32572,-0.005 z m 5.5691,-5.86829 c 1.17152,-0.58523 1.11947,0.0508 1.11974,-13.68488 0,-13.72855 0.0422,-13.19311 -1.06993,-13.65779 -0.89317,-0.37319 -3.57031,-0.24916 -4.06085,0.18814 -0.8015,0.7145 -0.78898,0.49925 -0.7887,13.54965 0,11.29931 0.021,12.2467 0.28,12.76513 0.40742,0.81559 1.13489,1.11951 2.67974,1.11951 0.89843,0 1.44694,-0.0834 1.84,-0.27976 z m 29.78283,5.86765 c -3.10936,-0.29999 -4.42581,-1.3274 -5.00669,-3.9074 -0.31915,-1.41753 -0.31699,-29.95694 0.002,-31.36 0.53154,-2.33513 1.55332,-3.29531 4.02149,-3.77902 0.65843,-0.12904 2.39016,-0.20381 4.72,-0.20381 5.65439,0 7.23632,0.47274 8.23437,2.46074 0.72301,1.44016 0.72563,1.50243 0.72563,17.20209 0,12.15146 -0.0406,15.04136 -0.22173,15.76 -0.65072,2.58271 -1.87835,3.4978 -5.14164,3.83268 -1.84615,0.18945 -5.34146,0.18692 -7.3338,-0.005 z m 5.57717,-5.86765 c 1.17152,-0.58523 1.11947,0.0508 1.11974,-13.68488 0,-13.66047 0.0353,-13.19599 -1.02884,-13.64063 -0.8122,-0.33934 -3.05424,-0.312 -3.7709,0.046 -1.17126,0.5851 -1.1195,-0.0456 -1.1195,13.63974 0,11.33282 0.0207,12.28151 0.27976,12.8 0.40742,0.81559 1.13489,1.11951 2.67974,1.11951 0.89843,0 1.44694,-0.0834 1.84,-0.27976 z m -84.3103,5.22635 c -2.50162,-0.32374 -4.3322,-1.2313 -5.24821,-2.60195 -1.1273,-1.68679 -1.07432,-0.92805 -1.11883,-16.02415 -0.0221,-7.48 -0.0772,-13.75872 -0.1226,-13.95272 -0.0735,-0.31432 -0.19995,-0.35785 -1.16128,-0.4 l -1.07878,-0.0473 -0.0441,-2.52 -0.0441,-2.52 h 1.01207 c 0.57382,0 1.0952,-0.0831 1.20406,-0.192 0.14208,-0.14208 0.192,-1.66044 0.192,-5.84 v -5.64797 h 3.04 3.04 v 5.66041 c 0,4.4819 0.0438,5.69675 0.21037,5.83499 0.12109,0.1005 1.08872,0.19368 2.28,0.21959 l 2.06963,0.045 0.0445,2.29818 c 0.0302,1.55838 -0.0147,2.36958 -0.13959,2.52 -0.13947,0.16805 -0.68281,0.22182 -2.24145,0.22182 -2.00615,0 -2.05964,0.009 -2.14861,0.3636 -0.0502,0.19997 -0.0696,5.97797 -0.0431,12.84 0.0479,12.40093 0.0503,12.48093 0.39419,13.22504 0.45864,0.99245 1.04324,1.28743 2.73402,1.37957 l 1.32,0.0719 v 2.61994 2.61993 l -1.56,-0.0203 c -0.858,-0.0112 -2.02363,-0.0803 -2.5903,-0.15362 z m 20.0298,-25.0661 0.0405,-25.23999 h 3.44 3.44 l 0.0406,21.98428 c 0.0294,15.92435 0.0899,22.04376 0.21958,22.2 0.14042,0.16919 0.95123,0.21571 3.75942,0.21571 h 3.5804 v 3.04 3.04 h -7.2805 -7.28049 z m 41.76,0.004 0.0405,-25.24345 2.89749,-0.0435 c 2.30704,-0.0347 2.93478,0.002 3.08049,0.17699 0.13602,0.16389 0.17263,6.64642 0.14252,25.24352 l -0.0405,25.02294 -3.0805,0.0435 -3.08049,0.0435 0.0405,-25.24346 z M 113.5126,61.365931 c -5.31689,-1.00326 -8.88004,-6.363718 -7.76677,-11.684452 0.74988,-3.583997 3.58956,-6.587378 7.1201,-7.530583 1.60471,-0.428707 3.91321,-0.364638 5.53255,0.153546 2.90864,0.93076 5.09385,3.015539 6.27395,5.985597 0.39169,0.985814 0.42587,1.256846 0.42753,3.39144 0.002,2.246489 -0.0146,2.360558 -0.5156,3.6 -1.79185,4.432902 -6.40093,6.965812 -11.07176,6.084452 z m 4.07702,-4.62556 c 1.71775,-0.786411 2.96858,-2.385115 3.24493,-4.14739 0.1731,-1.10384 -0.0158,-2.463182 -0.46463,-3.342893 -0.80526,-1.578425 -2.63765,-2.87734 -4.36325,-3.09294 -1.91733,-0.239556 -4.06549,0.792382 -5.20655,2.501135 -1.27212,1.905015 -1.27846,4.08772 -0.0175,6.038607 1.47246,2.278181 4.38473,3.152451 6.80704,2.043481 z M 5.7370879,48.164248 c -1.827194,-0.271595 -3.674076,-1.64166 -4.508984,-3.344883 -0.395053,-0.805915 -0.440242,-1.070227 -0.441157,-2.580381 -9.6e-4,-1.575705 0.03198,-1.749587 0.518968,-2.739611 0.616414,-1.253148 1.619899,-2.235896 2.891987,-2.832228 0.793491,-0.371975 1.109838,-0.425666 2.508024,-0.425666 1.398186,0 1.714533,0.05369 2.508024,0.425666 1.2709281,0.595787 2.2754861,1.579142 2.8919871,2.830944 0.481845,0.978383 0.519989,1.173483 0.519989,2.659612 0,1.428779 -0.05018,1.712411 -0.459867,2.599357 -0.779752,1.688112 -2.5000471,3.04631 -4.2136451,3.326736 -1.166334,0.190869 -1.412376,0.199805 -2.215326,0.08045 z m 1.593067,-4.385868 c 0.293672,-0.122704 0.65136,-0.390725 0.794861,-0.5956 0.533916,-0.762276 0.196425,-2.140615 -0.61462,-2.510151 -1.223073,-0.55727 -2.473747,0.195504 -2.480912,1.493248 -0.0043,0.770258 0.337607,1.310019 1.01697,1.605695 0.630944,0.274601 0.642632,0.274664 1.283701,0.0068 z M 33.345926,15.355952 c -3.7306,-0.66265 -6.292718,-3.722213 -6.292718,-7.5144715 0,-6.824736 8.137619,-10.177229 12.975488,-5.345573 4.325875,4.32032 1.996993,11.7355195 -4.036029,12.8507845 -1.054863,0.195002 -1.590491,0.196876 -2.646741,0.0093 z m 3.161458,-3.605232 c 1.560476,-0.777618 2.431515,-2.178019 2.431515,-3.9092395 0,-2.317061 -1.620554,-4.096317 -3.897405,-4.27908 -3.664349,-0.294139 -5.994726,3.607805 -4.005138,6.7061335 1.121959,1.747195 3.594831,2.417134 5.471028,1.482186 z"
       id="path1511"
       inkscape:connector-curvature="0" />
  </g>
</svg>
