<?xml version="1.0" encoding="UTF-8" standalone="no"?>
<!-- Created with Inkscape (http://www.inkscape.org/) -->

<svg
   xmlns:dc="http://purl.org/dc/elements/1.1/"
   xmlns:cc="http://creativecommons.org/ns#"
   xmlns:rdf="http://www.w3.org/1999/02/22-rdf-syntax-ns#"
   xmlns:svg="http://www.w3.org/2000/svg"
   xmlns="http://www.w3.org/2000/svg"
   xmlns:sodipodi="http://sodipodi.sourceforge.net/DTD/sodipodi-0.dtd"
   xmlns:inkscape="http://www.inkscape.org/namespaces/inkscape"
   version="1.1"
   id="svg815"
   width="206.45285"
   height="307.27222"
   viewBox="0 0 206.45285 307.27221"
   sodipodi:docname="simple.svg"
   inkscape:version="0.92.2 (5c3e80d, 2017-08-06)">
  <metadata
     id="metadata821">
    <rdf:RDF>
      <cc:Work
         rdf:about="">
        <dc:format>image/svg+xml</dc:format>
        <dc:type
           rdf:resource="http://purl.org/dc/dcmitype/StillImage" />
        <dc:title></dc:title>
      </cc:Work>
    </rdf:RDF>
  </metadata>
  <defs
     id="defs819" />
  <sodipodi:namedview
     pagecolor="#ffffff"
     bordercolor="#666666"
     borderopacity="1"
     objecttolerance="10"
     gridtolerance="10"
     guidetolerance="10"
     inkscape:pageopacity="0"
     inkscape:pageshadow="2"
     inkscape:window-width="3840"
     inkscape:window-height="2035"
     id="namedview817"
     showgrid="false"
     inkscape:zoom="2.16"
     inkscape:cx="14.177246"
     inkscape:cy="102.68839"
     inkscape:window-x="-13"
     inkscape:window-y="-13"
     inkscape:window-maximized="1"
     inkscape:current-layer="g1503"
     fit-margin-top="0"
     fit-margin-left="0"
     fit-margin-right="0"
     fit-margin-bottom="0" />
  <g
     id="g1503"
     transform="translate(-0.78692757,-0.21663371)"
     style="display:inline">
    <path
       style="display:inline;fill:#eb6850;stroke-width:0.16"
       d="m 25.452732,307.41494 c -0.05874,-0.0587 -0.106806,-51.1711 -0.106806,-113.58302 0,-103.327859 0.02263,-113.484889 0.253086,-113.573319 48.045504,-0.0744 87.749908,0.16881 125.986918,-0.0971 l 55.6,0.08 v 113.599989 113.6 l -90.81319,0.0401 c -49.947264,0.0221 -90.861264,-0.008 -90.920008,-0.0667 z m 52.120104,-4.79059 c 0.23015,-0.0883 0.25309,-5.40696 0.25309,-58.672 0,-33.41496 0.06,-58.50958 0.13979,-58.42288 0.0769,0.0836 1.70621,3.14 3.6207,6.792 1.9145,3.652 3.55241,6.73 3.6398,6.84 0.12529,0.1577 3.68281,0.2 16.821454,0.2 h 16.66256 l 0.33829,1.41615 c 0.87246,3.65221 2.97207,6.21104 6.15264,7.49832 0.60546,0.24504 1.10171,0.52717 1.1028,0.62693 0.004,0.31772 -1.28205,3.29424 -1.96014,4.5386 -1.19383,2.19084 -2.22993,3.58242 -3.9427,5.29548 -2.37668,2.37705 -4.56089,3.59228 -7.56844,4.21088 -1.59511,0.32808 -5.0688,0.33147 -7.30622,0.007 -5.865154,-0.8502 -12.898664,-3.43656 -18.702894,-6.87744 -0.9913,-0.58767 -1.90574,-1.02882 -2.0321,-0.98034 -0.19579,0.0751 -0.21644,0.87526 -0.13978,5.41622 0.0495,2.93042 0.13592,6.76805 0.1921,8.52805 l 0.10214,3.2 1.68,0.10735 c 7.51133,0.47995 15.842814,4.05793 23.280004,9.99766 3.57063,2.85168 8.12138,7.61118 11.29679,11.81499 3.52017,4.66022 8.01935,12.18982 10.46871,17.51987 4.41887,9.61591 6.7932,18.94271 7.06696,27.76013 0.0602,1.93856 0.15836,3.08259 0.27096,3.15755 0.25124,0.16725 3.4914,0.14616 3.76092,-0.0245 0.18584,-0.11766 0.2074,-0.70057 0.12571,-3.39755 -0.37064,-12.23557 -4.62509,-25.52027 -12.26416,-38.29552 -4.35184,-7.27781 -7.68951,-11.722 -12.46183,-16.59328 -4.98015,-5.08342 -10.05492,-8.84205 -15.78406,-11.69043 -4.149304,-2.06294 -7.769264,-3.23677 -12.977404,-4.20811 -0.27582,-0.0514 -0.35588,-0.21674 -0.43861,-0.90555 -0.14813,-1.23328 -0.1263,-5.40263 0.0283,-5.40263 0.0728,0 1.09876,0.42283 2.28,0.93962 4.06706,1.77931 8.13973,3.07237 11.974664,3.80192 2.65779,0.50561 7.34491,0.69603 9.47793,0.38504 2.86403,-0.41755 6.11403,-1.78186 8.46529,-3.55359 1.61672,-1.21824 3.84101,-3.56912 5.05088,-5.33836 3.77043,-5.51367 6.2868,-13.19492 6.93733,-21.17629 0.11539,-1.41581 0.10505,-1.90304 -0.0435,-2.05018 -0.15179,-0.15033 -5.16144,-0.15806 -22.6635,-0.0349 -18.589394,0.13078 -22.505224,0.1215 -22.680464,-0.0538 -0.25309,-0.25308 -4.84162,-8.95435 -8.3739,-15.87947 -4.08405,-8.00689 -5.2184,-10.08 -5.51546,-10.08 -0.24746,0 -0.26464,4.62515 -0.24782,66.71421 0.0141,52.09904 0.0606,66.74121 0.21218,66.83755 0.22941,0.14578 3.33418,0.17189 3.70101,0.0311 z m 48.640644,-98.61188 c -0.44685,-0.25631 -1.05147,-0.73821 -1.34358,-1.07092 -0.57485,-0.65472 -1.37621,-2.23913 -1.53517,-3.03523 l -0.0989,-0.49515 2.51948,-0.11238 c 1.50272,-0.067 2.57952,-0.0524 2.66824,0.0363 0.1465,0.14649 -0.0953,1.73131 -0.62043,4.06633 -0.2835,1.26061 -0.38745,1.30056 -1.58968,0.611 z m -24.47391,98.55929 c 0.0509,-0.0823 -0.18969,-0.71234 -0.53463,-1.4 -2.886994,-5.75538 -1.786594,-12.31114 2.80315,-16.7001 1.86976,-1.78796 3.77496,-2.87014 6.21784,-3.53179 1.74124,-0.4716 5.23353,-0.50899 6.86649,-0.0735 2.63392,0.70244 4.88954,1.9742 6.6622,3.75628 2.486,2.4992 3.85547,5.47051 4.13731,8.97667 0.14866,1.84937 0.26648,2.19995 0.90922,2.70553 0.93836,0.73812 2.31932,0.50722 2.95313,-0.49376 0.30655,-0.48416 0.32826,-0.69448 0.25272,-2.44963 -0.0996,-2.31545 -0.58942,-4.26509 -1.61579,-6.43176 -4.4069,-9.30304 -15.29228,-13.20829 -24.48528,-8.78435 -7.954004,3.8277 -12.057824,12.59189 -9.896964,21.13611 0.34189,1.35187 1.00756,3.00341 1.30591,3.24 0.30168,0.23923 4.279984,0.28445 4.424694,0.0503 z m 53.46452,-0.10963 c 0.86107,-0.40861 3.47709,-2.98928 4.76979,-4.70536 2.03386,-2.69995 3.37512,-5.53567 4.1689,-8.81386 1.71539,-7.08438 0.0752,-14.57549 -4.45731,-20.35715 -1.59335,-2.03248 -4.32967,-4.51898 -5.81159,-5.28099 -1.47915,-0.76058 -3.08795,0.13616 -3.08795,1.72123 0,0.9069 0.28366,1.29549 1.7407,2.38454 5.20941,3.8938 8.07031,9.54834 8.07031,15.95093 0,6.35047 -2.79527,11.94848 -7.90008,15.82128 -1.32603,1.006 -3.89152,2.37847 -5.27093,2.81978 -0.484,0.15486 -0.94168,0.31696 -1.01709,0.36024 -0.44409,0.25496 0.74482,0.35408 4.27291,0.35625 3.33794,0.002 4.06351,-0.0392 4.52234,-0.25689 z m 12.48942,-63.33992 c 0.95248,-0.28285 2.1693,-1.29215 2.61784,-2.17138 0.17164,-0.33641 0.96684,-3.33364 1.76712,-6.66051 1.27615,-5.30504 1.44628,-6.18017 1.38349,-7.11688 -0.10933,-1.63096 -0.94787,-2.85363 -2.49739,-3.64145 -0.6428,-0.32682 -7.61795,-2.09052 -8.26765,-2.09052 -0.22661,0 -0.55739,0.0778 -0.73505,0.17288 -0.43436,0.23247 -0.81783,1.19215 -0.69671,1.7436 0.19344,0.88077 0.596,1.05812 4.54883,2.00408 2.05911,0.49277 3.8745,0.96589 4.03421,1.05136 0.36848,0.1972 0.61773,0.65952 0.61773,1.14578 0,0.64424 -2.72226,11.70019 -2.97672,12.08944 -0.52507,0.80318 -0.55926,0.79873 -8.44107,-1.09853 -7.98253,-1.92152 -8.10221,-1.96542 -8.10221,-2.97293 0,-0.29068 0.61704,-3.10414 1.37122,-6.25211 1.03321,-4.31273 1.4542,-5.8123 1.70788,-6.08357 0.38671,-0.4135 1.0794,-0.4655 2.33618,-0.1754 0.62899,0.14518 0.90645,0.14038 1.29976,-0.0225 0.89243,-0.36965 1.24712,-1.626 0.67062,-2.37542 -0.57395,-0.74613 -3.28643,-1.21231 -4.7268,-0.81237 -0.7475,0.20755 -2.08425,1.41304 -2.52508,2.27715 -0.48236,0.94549 -3.20616,12.33261 -3.207,13.40717 -0.002,1.58139 0.93794,3.13003 2.33461,3.8496 0.47903,0.2468 7.27099,1.95129 15.37861,3.85939 0.63398,0.1492 1.31635,0.10814 2.10758,-0.12683 z m 14.22706,-50.4945 c 0.20282,-0.19052 0.41258,-0.54592 0.46613,-0.78976 0.11773,-0.53598 -0.25856,-1.50963 -0.66722,-1.72649 -0.39283,-0.20845 -6.28349,-1.62999 -6.75448,-1.62999 -0.53661,0 -1.45921,0.97672 -1.45848,1.544 0.002,0.72952 0.54053,1.45434 1.23176,1.65469 2.226,0.6452 5.80739,1.42447 6.27059,1.36439 0.29863,-0.0387 0.70888,-0.22629 0.9117,-0.41684 z m -31.87622,-29.11785 c 0.54462,-0.4284 0.57908,-1.26919 0.0714,-1.74215 -0.19259,-0.17944 -0.42659,-0.32625 -0.52,-0.32625 -0.0934,-2e-5 -4.66283,-0.36002 -10.1543,-0.8 -11.63686,-0.93239 -11.74194,-0.93624 -12.08645,-0.44439 -0.43475,0.62069 -0.25515,1.55584 0.34648,1.80415 0.24899,0.10275 19.82667,1.77403 21.34287,1.82197 0.36512,0.0115 0.7339,-0.104 1,-0.31333 z m 9.22492,-2.40079 c 0.29002,-1.07704 0.18439,-1.3007 -0.72334,-1.53171 -0.99682,-0.25368 -1.16982,-0.11797 -1.30504,1.02373 l -0.0972,0.8203 0.54109,0.15562 c 0.29761,0.0856 0.73633,0.1621 0.97494,0.17003 0.37629,0.0125 0.45712,-0.0721 0.6095,-0.63797 z m -37.70492,0.16079 c 0.57897,-0.45541 0.60068,-1.46367 0.0394,-1.83139 -0.49295,-0.323 -24.397594,-2.28216 -25.049264,-2.05298 -0.22432,0.0789 -0.50453,0.34514 -0.62269,0.59167 -0.28052,0.58528 -0.009,1.28945 0.58782,1.52523 0.31048,0.12262 21.557124,1.94416 24.284694,2.08198 0.18614,0.009 0.52814,-0.13213 0.76,-0.31451 z m 28.48,-0.96 c 0.27716,-0.21802 0.42158,-0.48599 0.42158,-0.78227 0,-0.98675 -0.14408,-1.04714 -6.72874,-2.82 -3.3832,-0.9109 -6.42126,-1.65842 -6.75126,-1.66114 -0.72886,-0.006 -1.24,0.44208 -1.24,1.08714 0,0.90289 0.35384,1.04734 6.89326,2.81405 3.38071,0.91334 6.33503,1.66809 6.56516,1.67723 0.23014,0.009 0.60814,-0.13263 0.84,-0.31501 z m 1.33126,-3.21627 c 0.44203,-0.41527 0.48096,-1.08415 0.0903,-1.55203 -0.40312,-0.48285 -24.54725,-12.18008 -25.14075,-12.18008 -0.32368,0 -0.58215,0.13491 -0.80763,0.42158 -0.43175,0.54886 -0.421,1.12419 0.0284,1.51858 0.59309,0.52052 24.4752,12.1076 24.98968,12.12446 0.27886,0.009 0.62014,-0.12597 0.84,-0.33251 z m -16.9824,-1.00483 c 0.48944,-0.48946 0.50141,-1.0696 0.0327,-1.58637 -0.30827,-0.33991 -1.71531,-0.75775 -9.79301,-2.90821 -7.33693,-1.95325 -9.52233,-2.47984 -9.83504,-2.36987 -0.87357,0.30721 -1.04928,1.54995 -0.28941,2.04689 0.37909,0.24792 18.49956,5.17074 19.12474,5.19564 0.202,0.008 0.544,-0.16208 0.76,-0.37808 z m -22.56001,-6.08 c 0.216,-0.216 0.39273,-0.56804 0.39273,-0.78229 0,-0.91384 -0.18298,-0.98696 -7.12356,-2.84664 -6.300994,-1.68831 -6.576124,-1.74741 -7.061604,-1.51722 -0.67433,0.31975 -0.86224,1.07735 -0.41621,1.67803 0.27908,0.37586 0.98626,0.60341 6.616924,2.12917 3.46745,0.9396 6.50572,1.7136 6.75172,1.72 0.27314,0.007 0.60017,-0.14123 0.84,-0.38105 z m 10.19273,-7.31183 c 0.32712,-0.38659 0.36518,-1.08115 0.08,-1.45997 -0.31945,-0.42432 -18.25213,-9.07548 -18.81227,-9.07548 -1.02695,0 -1.49831,1.48902 -0.65461,2.06792 0.1827,0.12534 4.37649,2.19752 9.31953,4.60483 9.46838,4.61118 9.44243,4.60123 10.06735,3.8627 z M 92.625926,90.081481 v -2.64 h -29.04 -29.04 l -0.04435,2.47328 c -0.02439,1.3603 -0.01251,2.55626 0.02641,2.65767 0.05308,0.13834 7.316872,0.17998 29.08435,0.16672 l 29.01359,-0.01767 z"
       id="path1531"
       inkscape:connector-curvature="0"
       sodipodi:nodetypes="cscccccscccscccscccccccccccccccsscccccscccscccccccccsssccccccccccccccccccsccccsccccccccscsscccccccccsccscsccscccccccccccccccscccccccccccccccccccccccscccccsccssccccsccccccsccccccsscccccscsccsccccccscc" />
    <path
       style="display:inline;fill:#e85624;stroke-width:0.16"
       d="M 25.505926,193.84514 V 80.328541 c 76.186974,0.0259 -13.035767,-0.0226 70.45657,-0.25043 0.0833,0.21718 6.068444,0.24337 55.615374,0.24337 h 55.52196 l 0.0866,0.36 c 0.0477,0.198 0.067,51.263999 0.0431,113.479989 l -0.0436,113.12 -90.84,0.0402 -90.840004,0.0401 z m 52.30019,108.6602 c 0.13161,-0.15857 0.19008,-15.69908 0.21959,-58.36 l 0.0402,-58.14387 3.52836,6.72 3.52836,6.72 10.95702,0.0411 10.957024,0.0411 1.91462,1.0439 c 2.88984,1.57563 7.22801,3.74072 9.91462,4.94816 1.32,0.59326 3.35599,1.53925 4.52443,2.10219 1.16843,0.56296 2.17643,1.02466 2.24,1.026 0.0636,0.002 0.20936,0.0619 0.32399,0.13464 0.41516,0.26335 -1.45581,4.31679 -3.18754,6.90575 -2.68937,4.02065 -6.37218,6.52209 -10.60842,7.20548 -1.52349,0.24576 -5.51089,0.11928 -7.53246,-0.23894 -5.780484,-1.02429 -12.193384,-3.47224 -17.814414,-6.80018 -1.74859,-1.03524 -2.00166,-1.14169 -2.21267,-0.93068 -0.20917,0.20916 -0.21823,1.27598 -0.0743,8.7411 0.0902,4.67658 0.20814,8.5743 0.26211,8.66163 0.054,0.0873 0.4567,0.15875 0.89498,0.15875 2.55497,0 6.41235,0.74924 9.65534,1.87539 10.564814,3.66874 20.223264,11.62616 27.915004,22.99866 6.48833,9.59322 10.99564,19.27691 13.35796,28.69877 1.20117,4.79069 1.80235,8.91886 1.96123,13.46718 0.0538,1.54 0.16893,2.89 0.25586,3 0.18604,0.23544 3.74145,0.28211 4.10193,0.0539 0.18392,-0.11648 0.20727,-0.72663 0.13299,-3.47755 -0.21086,-7.81052 -2.06342,-16.10188 -5.5716,-24.93631 -2.10955,-5.31241 -6.31328,-13.13227 -10.10152,-18.79109 -5.10087,-7.61958 -10.90951,-13.75748 -17.45459,-18.444 -5.83433,-4.17758 -12.681464,-7.24607 -18.668354,-8.36609 -0.748,-0.13992 -1.51277,-0.28597 -1.69949,-0.32451 -0.3255,-0.0672 -0.3443,-0.18927 -0.45646,-2.96242 -0.0643,-1.59077 -0.0851,-2.92417 -0.0461,-2.96313 0.039,-0.039 0.74837,0.24523 1.57646,0.63156 3.05751,1.42642 7.82697,3.0422 11.105624,3.76231 7.84556,1.72318 13.75138,0.99341 18.75851,-2.31799 1.7561,-1.16137 4.26285,-3.66193 5.67866,-5.66464 1.12883,-1.59675 2.9807,-5.06206 3.71945,-6.96 0.23976,-0.616 0.49256,-1.18033 0.56176,-1.25409 0.0692,-0.0738 1.49082,0.33445 3.15916,0.90712 3.09468,1.06227 7.26838,2.34552 9.92048,3.05014 1.05793,0.28107 1.50979,0.3413 1.58979,0.21184 20.52178,-4.71608 30.33646,6.0523 36.05222,5.08263 0,0.21088 0.59773,0.24235 4.6,0.24227 2.53,-5e-5 5.932,-0.0731 7.56,-0.16229 3.33189,-0.18258 8.65749,-0.62987 8.84,-0.74246 0.066,-0.0407 0.12,-30.16586 0.12,-66.94474 V 85.281181 l -85.96,0.0402 -85.960004,0.0401 0.0034,7.84 0.0034,7.839999 0.766102,2.56 c 5.045828,16.86108 11.640173,31.10027 20.673359,44.64 3.250669,4.87238 5.218201,7.51663 5.379073,7.22918 7.543346,11.95352 11.974666,14.49504 11.974666,14.49504 l 2.16,2.19577 2.16,2.19578 v 64.08877 c 0,51.12132 0.0405,64.10512 0.2,64.16948 0.11,0.0444 1.03718,0.0864 2.06041,0.0933 1.37963,0.009 1.90676,-0.0432 2.03978,-0.20351 z m 9.96533,-107.74387 c -0.0801,-0.154 -1.7094,-3.25528 -3.62055,-6.89174 -1.91115,-3.63645 -3.43713,-6.64942 -3.39107,-6.69549 0.0461,-0.0461 0.75479,0.48611 1.57493,1.18263 4.48276,3.80702 9.58223,7.63836 14.54737,10.92977 l 2.3362,1.54866 -1.7762,0.10237 c -0.97691,0.0563 -3.51967,0.10268 -5.65057,0.10308 -3.52813,0 -3.88739,-0.0243 -4.02011,-0.27928 z m 14.137634,107.79491 c 0.0561,-0.0908 -0.22662,-0.8288 -0.62829,-1.64 -1.0619,-2.14454 -1.408784,-3.60715 -1.431284,-6.03491 -0.0373,-4.02955 1.283544,-7.31816 4.050904,-10.08552 2.76902,-2.76902 6.07337,-4.09672 10.08552,-4.05238 3.93029,0.0434 7.1755,1.44105 9.86243,4.2475 2.35693,2.46173 3.89757,6.01946 3.89757,9.00042 0,2.19673 1.37454,3.40509 3.11661,2.73977 1.09381,-0.41771 1.45045,-1.11086 1.41629,-2.7526 -0.0492,-2.36565 -0.83932,-5.49392 -1.93399,-7.65719 -1.15214,-2.27683 -3.37267,-4.91123 -5.47384,-6.49411 -5.94542,-4.47886 -14.39364,-4.86893 -20.7371,-0.95747 -7.427564,4.57993 -10.636504,13.43256 -7.884544,21.75137 0.70848,2.14165 0.64282,2.10021 3.32713,2.10021 1.360294,0 2.270364,-0.0644 2.332594,-0.16509 z m 53.62605,-0.14577 c 0.86414,-0.39234 3.6915,-3.23138 4.88264,-4.90282 6.88898,-9.66681 5.90752,-22.61542 -2.35184,-31.02859 -1.67515,-1.70635 -3.83838,-3.36034 -4.69752,-3.59168 -1.67126,-0.45002 -3.2425,1.1817 -2.704,2.80811 0.13824,0.41755 0.47782,0.82904 1.08152,1.31055 2.41843,1.92894 3.28728,2.73171 4.25296,3.92942 1.89978,2.35627 3.07413,4.66317 3.87605,7.61406 0.38501,1.41677 0.41627,1.77813 0.41627,4.81181 0,3.03368 -0.0313,3.39504 -0.41627,4.81181 -1.80515,6.64258 -6.59147,11.75378 -12.91855,13.79539 -1.91086,0.61659 -1.28854,0.74285 3.66954,0.74442 3.82493,0.002 4.3055,-0.0284 4.9092,-0.30248 z m 12.71707,-63.32888 c 0.9657,-0.42717 1.80523,-1.19642 2.20336,-2.01885 0.51147,-1.05656 3.23011,-12.48541 3.2285,-13.57224 -0.002,-1.30286 -0.50199,-2.35435 -1.5945,-3.35285 -7.62366,-8.91998 -16.14623,-6.40955 -20.34207,-3.25654 -0.81198,0.73211 -1.11504,1.62746 -2.57419,7.60507 -1.60936,6.593 -1.7328,7.52719 -1.16205,8.79512 0.42989,0.955 1.06035,1.67949 1.87904,2.15927 0.46429,0.27209 3.00635,0.96022 8.26314,2.23683 8.22987,1.99862 8.62936,2.05416 10.09881,1.40416 z m -6.18627,-3.97728 c -1.936,-0.47554 -5.06186,-1.2361 -6.94635,-1.69014 -3.62274,-0.87285 -4.01365,-1.05412 -4.01365,-1.86106 0,-0.53534 2.65517,-11.61166 2.8876,-12.04598 0.23125,-0.4321 0.88114,-0.54455 1.91408,-0.33119 0.49368,0.10197 1.08573,0.18539 1.31568,0.18539 0.50746,0 1.33307,-0.66105 1.4607,-1.16955 0.0918,-0.36593 0.10725,-0.36832 1.25746,-0.19358 l 1.16448,0.17689 -0.051,0.57981 c -0.0679,0.77143 0.35269,1.54267 0.98161,1.80026 0.28016,0.11473 2.09338,0.58619 4.02938,1.04769 3.73056,0.88927 4.24574,1.12125 4.23365,1.90637 -0.004,0.22666 -0.64224,3.03432 -1.41946,6.23925 -1.04771,4.32032 -1.4884,5.88217 -1.70424,6.04 -0.47787,0.34942 -1.41009,0.22462 -5.10995,-0.68416 z"
       id="path1523"
       inkscape:connector-curvature="0"
       sodipodi:nodetypes="cccsccccccccsccccccccccscsccccscsccccccccccccccccccscccsccscccccssccccsccccccccccccccccsccsccccscsccscsccccscccccscccccssccccsccscccccccsccc" />
    <path
       style="display:inline;fill:#2a4b6d;stroke-width:0.16"
       d="m 25.58002,307.16147 c -0.04172,-0.11 -0.05746,-51.176 -0.03498,-113.48 l 0.04089,-113.279989 2.955747,-0.0438 c 1.625663,-0.0241 3.014539,-0.10254 3.086394,-0.17439 0.07186,-0.07181 -1.384231,-10.37186 -3.235747,-22.88896 C 26.540807,44.777228 25.02593,34.433705 25.02593,34.308722 c 0,-0.190141 0.640032,-0.227243 3.92,-0.227243 2.156,0 3.92,0.04431 3.92,0.09847 0,0.350391 1.955827,10.293066 2.083272,10.590555 0.380147,0.88736 0.476728,0.05185 0.476728,-4.124105 v -4.296194 l 1.4,-0.09951 c 0.77,-0.05473 1.796,-0.151194 2.28,-0.214364 l 0.88,-0.114854 0.138162,-0.92 0.138161,-0.92 h 11.07988 11.079879 l 0.202219,1.983339 c 0.111221,1.090837 0.265102,2.080837 0.34196,2.2 0.248064,0.384615 0.418603,-0.133859 0.527949,-1.605094 0.0564,-0.758034 0.14238,-1.648245 0.19118,-1.978245 l 0.0887,-0.6 h 19.50593 c 18.79576,0 19.50594,0.01066 19.50594,0.292821 0,0.161051 -1.58341,10.508038 -3.5187,22.993303 -1.93528,12.48527 -3.46178,22.7574 -3.39222,22.82695 0.0695,0.0696 25.10697,0.14457 55.6387,0.1667 l 55.51226,0.04023 0.0401,113.479989 0.0401,113.48 H 116.381 c -72.432984,0 -90.740433,-0.0403 -90.801,-0.2 z m 31.906464,-4.49657 c 0.132602,-0.15978 0.169212,-22.59829 0.139591,-85.56 l -0.04015,-85.34342 -0.88,-0.08 -0.88,-0.08 -0.04064,-19.4 -0.04064,-19.399999 h 8.00128 8.00128 l -0.0406,19.399999 -0.0406,19.4 -1.36,0.08 -1.36,0.08 -0.0401,85.34342 c -0.0296,62.96171 0.007,85.40022 0.13959,85.56 0.25057,0.30192 133.086755,0.32638 133.388565,0.0246 0.28003,-0.28003 0.28003,-217.415959 0,-217.695989 -0.25608,-0.25608 -171.66025,-0.28234 -172.138523,-0.0264 -0.305509,0.1635 -0.309482,1.56068 -0.309482,108.847999 0,84.31739 0.04304,108.7254 0.192,108.87436 0.299918,0.29992 27.059237,0.27584 27.308558,-0.0246 z M 167.10593,248.68802 c -0.308,-0.0341 -5.24,-1.18303 -10.96,-2.55317 -7.29443,-1.7473 -10.70328,-2.63355 -11.41563,-2.96792 -2.62047,-1.23002 -4.43707,-4.43707 -4.1305,-7.29202 0.12723,-1.18477 5.09248,-21.75345 5.53643,-22.93476 0.4125,-1.09764 1.64306,-2.8828 2.555,-3.7065 0.98078,-0.88587 1.76697,-1.34885 7.68041,-4.52288 4.60922,-2.47398 5.48163,-3.00155 6.33239,-3.8293 0.57536,-0.55979 1.16307,-1.32684 1.40982,-1.84 0.35904,-0.74668 3.31208,-12.439 3.31208,-13.11388 0,-0.11404 -0.25917,-0.4942 -0.57592,-0.8448 -0.88045,-0.97456 -1.1765,-1.76946 -1.18056,-3.16991 -0.006,-2.00805 0.80526,-3.24853 2.69086,-4.11529 0.76644,-0.35231 1.02164,-0.38674 2.47887,-0.33444 l 1.62446,0.0583 0.36314,-1.36 c 0.47869,-1.79276 0.43523,-2.26544 -0.22562,-2.45372 -0.47677,-0.13586 -0.58601,-0.074 -1.96875,1.11494 -2.7557,2.36947 -5.87274,4.17627 -8.76411,5.08016 -1.16519,0.36426 -1.38733,0.38917 -1.92,0.21526 -1.03736,-0.33864 -1.43768,-1.67564 -0.7689,-2.56793 0.12008,-0.16021 0.87301,-0.53469 1.67317,-0.83218 1.99826,-0.74293 3.25078,-1.35893 4.74358,-2.33296 1.80253,-1.17614 3.58978,-2.69027 3.58978,-3.04123 0,-0.16203 -0.1452,-0.53034 -0.32266,-0.81846 -0.58616,-0.95165 -0.95734,-2.46543 -0.95734,-3.90416 0,-1.24431 -0.0273,-1.35823 -0.36,-1.50004 -0.198,-0.0844 -1.85965,-0.51398 -3.69256,-0.95462 -3.55349,-0.85427 -4.02248,-1.06338 -4.66386,-2.07939 -0.35923,-0.56904 -0.46692,-0.62203 -2.09115,-1.02904 -2.02784,-0.50813 -2.48345,-0.72266 -3.01509,-1.41967 -0.71542,-0.93796 -0.77955,-1.71254 -0.31436,-3.79696 0.61062,-2.73612 1.113,-3.51291 2.54032,-3.92783 0.86451,-0.25133 1.31233,-0.20821 3.4716,0.33417 l 1.07139,0.26912 0.83827,-0.41773 c 0.46104,-0.22974 1.08442,-0.41772 1.38528,-0.41772 0.65467,0 22.12355,5.14793 23.0116,5.51787 0.34021,0.14171 0.86144,0.41616 1.15829,0.60988 0.75211,0.49085 9.56291,11.49876 10.06109,12.56997 0.94689,2.03613 0.47526,5.3712 -0.90229,6.38048 -0.51295,0.37583 -1.36946,0.68179 -1.90855,0.68179 -0.22124,0 -1.65329,-0.2996 -3.18235,-0.66577 -2.01397,-0.48231 -2.82835,-0.61751 -2.95525,-0.49061 -0.20046,0.20046 -1.24529,4.38666 -1.24956,5.00645 -0.002,0.25285 0.18683,0.59024 0.49184,0.88 0.74785,0.71048 1.14444,1.61598 1.22195,2.78993 0.0623,0.94365 -0.5761,3.71733 -6.8913,29.94032 -5.06385,21.02699 -7.07745,29.13216 -7.39123,29.75136 -0.86555,1.70808 -2.88502,3.36327 -4.63408,3.79811 -0.83611,0.20789 -2.09744,0.31453 -2.8,0.23676 z m 2.48,-3.71768 c 0.93493,-0.40804 1.93485,-1.57317 2.22834,-2.59656 0.52564,-1.83282 13.69166,-56.7725 13.69166,-57.13307 0,-0.72775 -0.58288,-1.03127 -3.1596,-1.64525 -2.16048,-0.5148 -2.47907,-0.63375 -2.83709,-1.05923 -0.90433,-1.07474 -0.21489,-2.69708 1.14439,-2.69285 0.33676,0.002 1.0083,0.10819 1.4923,0.23809 1.47462,0.39581 1.55411,0.36711 1.85566,-0.67019 0.18191,-0.62574 0.21543,-0.98817 0.10725,-1.15966 -0.15881,-0.25176 -6.55937,-1.91023 -7.42392,-1.92362 -0.37109,-0.006 -0.44309,0.0836 -0.60723,0.75347 -0.10243,0.418 -0.22019,0.87456 -0.26171,1.01458 -0.0415,0.14003 0.14174,0.52792 0.40723,0.862 0.66107,0.83186 0.66654,1.68421 0.015,2.33573 -0.60042,0.60043 -1.00256,0.59902 -3.506,-0.0123 -1.08112,-0.264 -2.21333,-0.48 -2.516,-0.48 -0.72198,0 -1.1903,0.46893 -1.1903,1.19185 0,0.44221 0.11078,0.63636 0.55752,0.97711 0.30662,0.23387 0.70272,0.66019 0.8802,0.94736 0.66808,1.08097 0.62194,1.43883 -1.11441,8.64368 -1.82397,7.56838 -2.17514,8.52883 -3.75563,10.27155 -1.19796,1.32093 -2.11192,1.89392 -8.3934,5.26206 -4.64259,2.48938 -5.47432,2.99266 -6.32353,3.82639 -0.56875,0.55837 -1.15275,1.32817 -1.39591,1.84 -0.35756,0.75267 -5.1991,20.29072 -5.51793,22.26763 -0.24035,1.49032 0.74208,3.2871 2.20264,4.02848 0.59944,0.30427 3.79675,1.14163 10.54045,2.76046 5.324,1.27805 9.968,2.38479 10.32,2.45944 0.79574,0.16877 1.72497,0.0573 2.56,-0.30715 z m 15.9893,-70.98706 c 0.6696,-0.80107 1.63708,-1.33273 2.43529,-1.33829 0.27752,-0.002 1.73755,0.2916 3.24451,0.65232 2.19776,0.52607 2.78653,0.61717 2.97543,0.46042 0.30453,-0.25275 0.30475,-1.37966 0,-1.9632 -0.43626,-0.83637 -8.70352,-11.07184 -9.15527,-11.33486 -0.52668,-0.30668 -21.25155,-5.3224 -21.53792,-5.2125 -0.19646,0.0754 -1.2408,4.05699 -1.23491,4.70814 0.004,0.41548 -0.40329,0.28965 5.6032,1.73202 4.78319,1.14861 5.96546,1.58946 7.1349,2.66046 1.78592,1.6356 2.57609,3.60828 2.40361,6.00056 -0.056,0.77722 -0.11913,1.66512 -0.1402,1.97312 l -0.0383,0.56 3.6,0.90608 c 1.98,0.49834 3.71075,0.91234 3.84611,0.92 0.13538,0.008 0.52381,-0.31827 0.86319,-0.72427 z m -11.43282,-4.27893 c -0.004,-0.8259 -0.49539,-1.9366 -1.16554,-2.63652 -0.58652,-0.6126 -1.32878,-1.04367 -1.55564,-0.90344 -0.22959,0.14188 -0.18845,1.44801 0.0647,2.05385 0.43912,1.05096 1.94096,2.42493 2.44092,2.23307 0.13756,-0.0528 0.21779,-0.33075 0.21558,-0.74696 z m -14.73954,-12.38288 c 0.28543,-1.14715 0.30319,-1.28563 0.18869,-1.47088 -0.16449,-0.26617 -1.93453,-0.70422 -2.11525,-0.5235 -0.21172,0.21173 -0.60396,1.78491 -0.50763,2.03597 0.0919,0.2396 0.99867,0.51702 1.77109,0.54187 0.46525,0.015 0.52794,-0.0402 0.6631,-0.58346 z m -46.61694,-30.35452 c -5.75298,-1.05635 -9.61556,-6.69864 -8.49755,-12.41287 0.16955,-0.86658 0.52614,-1.88754 0.99238,-2.84131 1.46846,-3.00396 4.41557,-5.16536 7.784,-5.70875 0.53805,-0.0868 0.6816,-0.22563 1.41427,-1.36781 2.11605,-3.29872 5.4267,-5.20546 9.36343,-5.39277 2.24686,-0.1069 3.75728,0.19821 5.74347,1.16024 3.93408,1.90549 6.3557,5.54976 6.59475,9.92434 0.36568,6.69184 -4.48075,12.04528 -11.30841,12.49147 l -1.52634,0.0998 -1.04,0.99921 c -1.85532,1.78256 -3.48706,2.64842 -5.76,3.05645 -1.4616,0.26237 -2.29738,0.26061 -3.76,-0.008 z m 3.96354,-4.49821 c 1.60048,-0.55848 2.90976,-1.8189 3.86747,-3.72312 0.36588,-0.72747 0.48284,-0.84157 0.77972,-0.76059 1.77667,0.48459 2.92186,0.60827 4.01362,0.43349 3.52792,-0.5648 6.1912,-3.41212 6.45464,-6.90066 0.38642,-5.11737 -4.69616,-9.19214 -9.58214,-7.68212 -2.48857,0.76909 -4.11121,2.44117 -5.10713,5.26273 l -0.41915,1.18752 -1.74529,0.0236 c -2.1634,0.0292 -3.17815,0.38341 -4.46328,1.55794 -2.74949,2.51288 -2.80853,6.59356 -0.13302,9.19387 1.66255,1.61581 4.15213,2.16893 6.33456,1.40739 z m 51.21012,1.94512 c -3.77024,-0.91437 -6.32558,-4.79358 -5.6816,-8.62511 0.48157,-2.86524 2.39748,-5.10965 5.14794,-6.03061 0.8691,-0.29101 1.31606,-0.33872 2.72,-0.29035 1.54909,0.0534 1.77792,0.10448 2.93669,0.65583 4.68337,2.22836 5.83033,8.36456 2.26261,12.10493 -1.90218,1.99424 -4.72704,2.83008 -7.38564,2.18531 z m 3.74221,-3.5575 c 1.60989,-0.75959 2.56336,-2.43013 2.4021,-4.20861 -0.27221,-3.00189 -3.54656,-4.87892 -6.1733,-3.53886 -0.83781,0.42742 -1.64189,1.23187 -2.02707,2.02804 -0.45075,0.93164 -0.50661,2.57197 -0.11755,3.45149 0.63267,1.43026 1.83555,2.40787 3.29494,2.6779 0.91098,0.16856 1.63467,0.0554 2.62088,-0.40996 z M 64.366486,302.6649 c 0.1326,-0.15978 0.16921,-22.59829 0.13959,-85.56 l -0.04015,-85.34342 h -1.2 -1.2 l -0.04015,85.34342 c -0.02962,62.96171 0.007,85.40022 0.139591,85.56 0.113027,0.13619 0.521513,0.21657 1.100558,0.21657 0.579041,0 0.987531,-0.0804 1.100561,-0.21657 z m 2.86022,-175.75579 c 0.15929,-0.10114 0.19235,-3.43123 0.16,-16.11756 l -0.04078,-15.990069 h -3.6 -3.6 l -0.04078,15.990069 c -0.03235,12.68633 6.4e-4,16.01642 0.16,16.11756 0.110428,0.0701 1.676778,0.12747 3.48078,0.12747 1.804,0 3.37035,-0.0574 3.48078,-0.12747 z m 24.12184,-46.787629 c 0.21581,-0.59474 6.44139,-41.499989 6.33265,-41.608733 -0.0713,-0.07127 -0.51786,-0.107458 -0.99242,-0.08042 l -0.86285,0.04915 -3.32914,13.92 c -1.83103,7.656003 -3.38999,13.981363 -3.46435,14.056353 -0.11232,0.11326 -3.98119,-0.46 -4.13574,-0.61281 -0.0271,-0.0268 0.60952,-6.10739 1.41467,-13.512487 0.80515,-7.405096 1.42356,-13.568941 1.37425,-13.697434 -0.14045,-0.366024 -0.73016,-0.28128 -0.87943,0.126378 -0.0725,0.198 -1.02057,5.562 -2.10683,11.92 -1.08626,6.358003 -2.01637,11.560003 -2.06691,11.560003 -0.0506,0 -0.69188,-5.274 -1.42518,-11.720003 -0.7333,-6.446 -1.39809,-11.7884 -1.47731,-11.872 -0.0908,-0.09583 -0.20378,-0.09225 -0.30571,0.0097 -0.11724,0.117242 -3.35832,20.819453 -3.35832,21.451063 0,0.10117 -3.60794,-0.0861 -4.03887,-0.20964 -0.26104,-0.0748 -0.2815,-0.76217 -0.32,-10.749526 l -0.0411,-10.669577 -1.95572,-0.04489 c -1.92286,-0.04414 -1.95704,-0.03876 -2.03407,0.32 -0.0431,0.20069 -0.53126,5.94489 -1.08482,12.76489 l -1.00647,12.400003 -2.12269,0.0447 c -1.61291,0.0339 -2.139472,-0.004 -2.19256,-0.16 -0.03843,-0.11256 -0.65182,-5.74866 -1.363096,-12.524663 -0.711273,-6.776 -1.33168,-12.447416 -1.378681,-12.603147 -0.07879,-0.261066 -0.349698,-0.279784 -3.473674,-0.24 l -3.388219,0.04315 -0.08,15.92 -0.08,15.92 -2.076586,0.11541 c -1.142121,0.0635 -2.119785,0.0635 -2.172587,0 -0.0528,-0.0635 -0.654005,-7.13541 -1.336009,-15.71541 -0.682004,-8.58 -1.275191,-15.726 -1.318194,-15.88 -0.139541,-0.499709 -0.504462,-0.305814 -0.602262,0.32 -0.05157,0.33 -0.814407,6.972 -1.695191,14.76 -0.880814,7.78794 -1.647318,14.41194 -1.703372,14.71994 l -0.101915,0.56 -0.178087,-0.8 c -0.09795,-0.44 -0.249579,-0.8 -0.336957,-0.8 -0.08796,0 -0.180044,0.57106 -0.20631,1.27944 -0.02609,0.70369 -0.09809,1.32841 -0.16,1.38826 -0.131168,0.12681 -4.006398,0.53179 -4.108802,0.42939 -0.03792,-0.0379 -0.286582,-1.09564 -0.552576,-2.35048 -0.579219,-2.7325 -0.87642,-3.39382 -0.738001,-1.64218 0.0976,1.23513 1.787307,12.84648 1.940614,13.33557 0.08314,0.26524 1.538074,0.28 27.602005,0.28 21.86602,0 27.52914,-0.0411 27.58682,-0.2 z M 113.5126,61.365931 c -5.31689,-1.00326 -8.88004,-6.363718 -7.76677,-11.684452 0.74988,-3.583997 3.58956,-6.587378 7.1201,-7.530583 1.60471,-0.428707 3.91321,-0.364638 5.53255,0.153546 2.90864,0.93076 5.09385,3.015539 6.27395,5.985597 0.39169,0.985814 0.42587,1.256846 0.42753,3.39144 0.002,2.246489 -0.0146,2.360558 -0.5156,3.6 -1.79185,4.432902 -6.40093,6.965812 -11.07176,6.084452 z m 4.07702,-4.62556 c 1.71775,-0.786411 2.96858,-2.385115 3.24493,-4.14739 0.1731,-1.10384 -0.0158,-2.463182 -0.46463,-3.342893 -0.80526,-1.578425 -2.63765,-2.87734 -4.36325,-3.09294 -1.91733,-0.239556 -4.06549,0.792382 -5.20655,2.501135 -1.27212,1.905015 -1.27846,4.08772 -0.0175,6.038607 1.47246,2.278181 4.38473,3.152451 6.80704,2.043481 z M 5.7370879,48.164248 c -1.827194,-0.271595 -3.674076,-1.64166 -4.508984,-3.344883 -0.395053,-0.805915 -0.440242,-1.070227 -0.441157,-2.580381 -9.6e-4,-1.575705 0.03198,-1.749587 0.518968,-2.739611 0.616414,-1.253148 1.619899,-2.235896 2.891987,-2.832228 0.793491,-0.371975 1.109838,-0.425666 2.508024,-0.425666 1.398186,0 1.714533,0.05369 2.508024,0.425666 1.2709281,0.595787 2.2754861,1.579142 2.8919871,2.830944 0.481845,0.978383 0.519989,1.173483 0.519989,2.659612 0,1.428779 -0.05018,1.712411 -0.459867,2.599357 -0.779752,1.688112 -2.5000471,3.04631 -4.2136451,3.326736 -1.166334,0.190869 -1.412376,0.199805 -2.215326,0.08045 z m 1.593067,-4.385868 c 0.293672,-0.122704 0.65136,-0.390725 0.794861,-0.5956 0.533916,-0.762276 0.196425,-2.140615 -0.61462,-2.510151 -1.223073,-0.55727 -2.473747,0.195504 -2.480912,1.493248 -0.0043,0.770258 0.337607,1.310019 1.01697,1.605695 0.630944,0.274601 0.642632,0.274664 1.283701,0.0068 z M 33.345926,15.355952 c -3.7306,-0.66265 -6.292718,-3.722213 -6.292718,-7.5144715 0,-6.824736 8.137619,-10.177229 12.975488,-5.345573 4.325875,4.32032 1.996993,11.7355195 -4.036029,12.8507845 -1.054863,0.195002 -1.590491,0.196876 -2.646741,0.0093 z m 3.161458,-3.605232 c 1.560476,-0.777618 2.431515,-2.178019 2.431515,-3.9092395 0,-2.317061 -1.620554,-4.096317 -3.897405,-4.27908 -3.664349,-0.294139 -5.994726,3.607805 -4.005138,6.7061335 1.121959,1.747195 3.594831,2.417134 5.471028,1.482186 z"
       id="path1511"
       inkscape:connector-curvature="0"
       sodipodi:nodetypes="cscccsssssscsscccccsccccssscscccscccscccccccccccsccscscccccsccccccscccccccscccscscscccccccsccsccccscscccsccccccssccccccccscssscccccccccccccccccccccsccccccccccccccccccccccscccccsccccccccccccccccccssccccsccccccccscccscsccscccscscccccsccsccsssccscccccscccscscccccsccccccscccsccscccsccccccccssccccsccsscssscccccccccccsssccsssss" />
  </g>
</svg>
